%TF.GenerationSoftware,KiCad,Pcbnew,9.0.5*%
%TF.CreationDate,2026-01-19T13:48:44+01:00*%
%TF.ProjectId,K_rper_Seite1,4bf67270-6572-45f5-9365-697465312e6b,rev?*%
%TF.SameCoordinates,Original*%
%TF.FileFunction,Profile,NP*%
%FSLAX46Y46*%
G04 Gerber Fmt 4.6, Leading zero omitted, Abs format (unit mm)*
G04 Created by KiCad (PCBNEW 9.0.5) date 2026-01-19 13:48:44*
%MOMM*%
%LPD*%
G01*
G04 APERTURE LIST*
%TA.AperFunction,Profile*%
%ADD10C,0.100000*%
%TD*%
%TA.AperFunction,Profile*%
%ADD11C,0.010050*%
%TD*%
G04 APERTURE END LIST*
D10*
X358436369Y-66657166D02*
X359698276Y-71494475D01*
X384148858Y-124161010D02*
X384757855Y-124352145D01*
X411651800Y-162791809D02*
X411856480Y-162939911D01*
X414426964Y-144572176D02*
X413581074Y-153637922D01*
X359698276Y-71494475D02*
X360894093Y-76078441D01*
X389194000Y-146541856D02*
X411651800Y-162791809D01*
X351531532Y-76302127D02*
X354888223Y-71646071D01*
X357477939Y-66657166D02*
X358436369Y-66657166D01*
X327908396Y-129063864D02*
X334003864Y-108635798D01*
X378797187Y-107863235D02*
X380262224Y-119504338D01*
X354150387Y-91524807D02*
X353125546Y-92098521D01*
X408835548Y-131908993D02*
X411964452Y-132891007D01*
X351606968Y-129359036D02*
G75*
G02*
X352761636Y-128544946I793638J100249D01*
G01*
X376293896Y-87972214D02*
G75*
G02*
X373015128Y-82455992I-680890J3327827D01*
G01*
X354888223Y-71646071D02*
X356795549Y-68931800D01*
X412828490Y-153092510D02*
X413581074Y-153637922D01*
X339783562Y-95595692D02*
X339371381Y-93201119D01*
X346516087Y-83106765D02*
X347853682Y-81354055D01*
X349191190Y-149775005D02*
X344770517Y-132651252D01*
X343457923Y-97510540D02*
X339783562Y-95595692D01*
X356795549Y-68931800D02*
X357477939Y-66657166D01*
X414823518Y-129742172D02*
X433030038Y-109690407D01*
X351531532Y-76302127D02*
G75*
G02*
X347853692Y-81354040I-1865426J-2506660D01*
G01*
X362678743Y-97726024D02*
X358578907Y-92299189D01*
X353999883Y-148302949D02*
X352087663Y-150400223D01*
X348987398Y-113250979D02*
X352624672Y-114369776D01*
X351606968Y-129359036D02*
X353999883Y-148302949D01*
X357355667Y-109735462D02*
X365218787Y-101088207D01*
X384148858Y-124161010D02*
G75*
G02*
X380262211Y-119504293I-2965852J1474923D01*
G01*
X329397683Y-131200356D02*
X329376886Y-131200356D01*
X352087663Y-150400223D02*
X349191190Y-149775005D01*
X415842819Y-132130036D02*
G75*
G02*
X419576358Y-128364681I7226487J-3431751D01*
G01*
X436816708Y-108621980D02*
X449528728Y-112166678D01*
X329376886Y-131200356D02*
X327908396Y-129063864D01*
X344770517Y-132651252D02*
X351919454Y-124794500D01*
X388712690Y-147207037D02*
X387524578Y-146422883D01*
X383423685Y-144050468D02*
G75*
G02*
X387524511Y-146422849I1989421J-1291619D01*
G01*
X351356386Y-121413551D02*
G75*
G02*
X351919451Y-124794553I665020J-1626636D01*
G01*
X334003864Y-108635798D02*
X348987398Y-113250979D01*
X360894093Y-76078441D02*
X373015082Y-82455953D01*
X376293896Y-87972214D02*
X377926016Y-100940943D01*
X384757855Y-124352145D02*
X404199332Y-130453904D01*
X351356386Y-121413551D02*
X335690017Y-116518246D01*
X339371381Y-93201119D02*
X346516087Y-83106765D01*
X408835548Y-131908993D02*
G75*
G02*
X404199251Y-130453875I-2343242J647606D01*
G01*
X414426964Y-144572176D02*
G75*
G02*
X414903215Y-139467948I536342J2524289D01*
G01*
X365218787Y-101088207D02*
X362678743Y-97726024D01*
X415842819Y-132130036D02*
X415525557Y-132798115D01*
X355443697Y-129901133D02*
X353601281Y-128969434D01*
X411964452Y-132891007D02*
X414823518Y-129742172D01*
X411911635Y-162918814D02*
X412828490Y-153092510D01*
X378797187Y-107863235D02*
G75*
G02*
X377926014Y-100940936I-139931J3498358D01*
G01*
X449528728Y-112166678D02*
X449823860Y-113684548D01*
X357355667Y-109735462D02*
G75*
G02*
X352624622Y-114369831I-2495961J-2184025D01*
G01*
X436816708Y-108621980D02*
G75*
G02*
X433029986Y-109690466I-2232902J669093D01*
G01*
X389194000Y-146541856D02*
X388712690Y-147207037D01*
X367288567Y-135891023D02*
G75*
G02*
X373508743Y-139036532I2884139J-2019564D01*
G01*
X383423685Y-144050468D02*
X373508742Y-139036532D01*
X367288567Y-135891023D02*
X355443697Y-129901133D01*
X415525557Y-132798115D02*
X414903216Y-139467994D01*
X353601281Y-128969434D02*
X352761503Y-128544880D01*
X353125546Y-92098521D02*
X343457923Y-97510540D01*
X449823860Y-113684548D02*
X419576351Y-128364667D01*
X354150387Y-91524807D02*
G75*
G02*
X358578909Y-92299191I2507449J1289480D01*
G01*
X411911635Y-162918814D02*
X411856480Y-162939911D01*
X335690017Y-116518246D02*
X329397683Y-131200356D01*
X110589436Y-123995087D02*
X98585849Y-117924936D01*
X122204461Y-95496315D02*
X123714996Y-107498946D01*
X86878773Y-85479580D02*
X82797853Y-83352859D01*
X144090468Y-144061357D02*
X152804716Y-150366789D01*
X153264603Y-150699553D02*
G75*
G02*
X155466016Y-149466200I2184257J-1317354D01*
G01*
X87708337Y-120398071D02*
X94742106Y-112667889D01*
X108205800Y-88906118D02*
X106189710Y-86165629D01*
X73355358Y-117861110D02*
X71844827Y-115663452D01*
X97656779Y-79445959D02*
X96455649Y-80118362D01*
X100248579Y-97656856D02*
G75*
G02*
X96123814Y-102336618I-2004089J-2391261D01*
G01*
X110589436Y-123995087D02*
G75*
G02*
X116492178Y-126980072I2815654J-1760870D01*
G01*
X132685711Y-134823012D02*
X131081632Y-133662557D01*
X95457583Y-101919717D02*
X96123815Y-102336617D01*
X79035123Y-104608324D02*
X73355358Y-117861110D01*
X91801167Y-136251908D02*
X87708337Y-120398071D01*
X94482621Y-64195672D02*
G75*
G02*
X91048363Y-68919146I-1584131J-2458435D01*
G01*
X98585849Y-117924936D02*
X96743433Y-116993237D01*
X82392614Y-80998615D02*
X89587323Y-70833613D01*
X77102317Y-96230591D02*
X92277137Y-100904692D01*
X95014211Y-116992566D02*
G75*
G02*
X95733896Y-116482718I496049J62659D01*
G01*
X99747859Y-56827866D02*
X102482089Y-56827866D01*
X144090468Y-144061357D02*
X144348305Y-143260208D01*
X127273735Y-111762968D02*
G75*
G02*
X123714996Y-107498945I-2858275J1231561D01*
G01*
X96455649Y-80118362D02*
X86878773Y-85479580D01*
X152804716Y-150366789D02*
X153264603Y-150699553D01*
X122204461Y-95496315D02*
G75*
G02*
X121380425Y-88948569I-314801J3286108D01*
G01*
X119696854Y-75571003D02*
X121380425Y-88948569D01*
X104297742Y-63787873D02*
X116569517Y-70244720D01*
X103124206Y-59289317D02*
X104297742Y-63787873D01*
X102482089Y-56827866D02*
X103124206Y-59289317D01*
X97957688Y-59375418D02*
X99747859Y-56827866D01*
X94482621Y-64195672D02*
X97957688Y-59375418D01*
X97442283Y-136214804D02*
X96458513Y-137293778D01*
X92277137Y-100904692D02*
X95457583Y-101919717D01*
X71844827Y-115663452D02*
X71467575Y-115114591D01*
X97656779Y-79445959D02*
G75*
G02*
X101809867Y-80212070I2419991J1478772D01*
G01*
X100248579Y-97656856D02*
X108205800Y-88906118D01*
X96458513Y-137293778D02*
X91801167Y-136251908D01*
X96743433Y-116993237D02*
X95733896Y-116482719D01*
X126624574Y-132103971D02*
G75*
G02*
X131081633Y-133662558I2338436J-464996D01*
G01*
X144348305Y-143260208D02*
X132685711Y-134823012D01*
X156227456Y-141305544D02*
X155466016Y-149466210D01*
X156227456Y-141305544D02*
X156980041Y-141850957D01*
X95014211Y-116992566D02*
X97442283Y-136214804D01*
X106189710Y-86165629D02*
X101809866Y-80212069D01*
X126624574Y-132103971D02*
X116492177Y-126980072D01*
X82797853Y-83352859D02*
X82392614Y-80998615D01*
X119696854Y-75571003D02*
G75*
G02*
X116569517Y-70244720I-851494J3081296D01*
G01*
X89587323Y-70833613D02*
X91048364Y-68919145D01*
X94367584Y-109399291D02*
X79035123Y-104608324D01*
X71467575Y-115114591D02*
X77102317Y-96230591D01*
X94367584Y-109399291D02*
G75*
G02*
X94742106Y-112667889I1343406J-1501826D01*
G01*
X159677746Y-119172828D02*
G75*
G02*
X162011316Y-116819363I4516614J-2144779D01*
G01*
X151552320Y-119382866D02*
G75*
G02*
X147630025Y-118151842I-2134160J64259D01*
G01*
X157870190Y-132310863D02*
G75*
G02*
X158323074Y-127457122I-70380J2454566D01*
G01*
X127273735Y-111762968D02*
X128050152Y-112006649D01*
X158953811Y-120697263D02*
X158323074Y-127457121D01*
X159677746Y-119172828D02*
X158953811Y-120697263D01*
X180147246Y-96287039D02*
G75*
G02*
X176195056Y-97312429I-2136986J107432D01*
G01*
X155134746Y-120507220D02*
X157907855Y-117453054D01*
X191953190Y-102287544D02*
X162011302Y-116819335D01*
X191396372Y-99423815D02*
X191953190Y-102287544D01*
X128050152Y-112006649D02*
X147630026Y-118151843D01*
X180147246Y-96287039D02*
X191396372Y-99423815D01*
X151552320Y-119382866D02*
X155134746Y-120507220D01*
X157907855Y-117453054D02*
X176195058Y-97312428D01*
X156980041Y-141850957D02*
X157870190Y-132310863D01*
D11*
X207324125Y-129021600D02*
G75*
G02*
X207314075Y-129021600I-5025J0D01*
G01*
X207314075Y-129021600D02*
G75*
G02*
X207324125Y-129021600I5025J0D01*
G01*
M02*
