%TF.GenerationSoftware,KiCad,Pcbnew,9.0.5*%
%TF.CreationDate,2026-01-19T12:29:50+01:00*%
%TF.ProjectId,Hinterbein_hinten_Seite1_LED-P,48696e74-6572-4626-9569-6e5f68696e74,rev?*%
%TF.SameCoordinates,Original*%
%TF.FileFunction,Copper,L1,Top*%
%TF.FilePolarity,Positive*%
%FSLAX46Y46*%
G04 Gerber Fmt 4.6, Leading zero omitted, Abs format (unit mm)*
G04 Created by KiCad (PCBNEW 9.0.5) date 2026-01-19 12:29:50*
%MOMM*%
%LPD*%
G01*
G04 APERTURE LIST*
G04 Aperture macros list*
%AMRoundRect*
0 Rectangle with rounded corners*
0 $1 Rounding radius*
0 $2 $3 $4 $5 $6 $7 $8 $9 X,Y pos of 4 corners*
0 Add a 4 corners polygon primitive as box body*
4,1,4,$2,$3,$4,$5,$6,$7,$8,$9,$2,$3,0*
0 Add four circle primitives for the rounded corners*
1,1,$1+$1,$2,$3*
1,1,$1+$1,$4,$5*
1,1,$1+$1,$6,$7*
1,1,$1+$1,$8,$9*
0 Add four rect primitives between the rounded corners*
20,1,$1+$1,$2,$3,$4,$5,0*
20,1,$1+$1,$4,$5,$6,$7,0*
20,1,$1+$1,$6,$7,$8,$9,0*
20,1,$1+$1,$8,$9,$2,$3,0*%
G04 Aperture macros list end*
%TA.AperFunction,ComponentPad*%
%ADD10C,1.000000*%
%TD*%
%TA.AperFunction,ConnectorPad*%
%ADD11C,2.000000*%
%TD*%
%TA.AperFunction,SMDPad,CuDef*%
%ADD12R,2.000000X2.000000*%
%TD*%
%TA.AperFunction,SMDPad,CuDef*%
%ADD13RoundRect,0.237500X0.300000X0.237500X-0.300000X0.237500X-0.300000X-0.237500X0.300000X-0.237500X0*%
%TD*%
%TA.AperFunction,SMDPad,CuDef*%
%ADD14RoundRect,0.090000X-0.138429X0.738943X-0.546332X-0.516451X0.138429X-0.738943X0.546332X0.516451X0*%
%TD*%
%TA.AperFunction,Conductor*%
%ADD15C,0.200000*%
%TD*%
%TA.AperFunction,Conductor*%
%ADD16C,0.500000*%
%TD*%
%TA.AperFunction,Conductor*%
%ADD17C,0.400000*%
%TD*%
G04 APERTURE END LIST*
D10*
%TO.P,H2,1,1*%
%TO.N,/Data_OUT_Hinterbein_hinten_Seite2*%
X129500000Y-68500000D03*
D11*
X129500000Y-68500000D03*
%TD*%
D12*
%TO.P,J3,1,Pin_1*%
%TO.N,/Data_IN_Hauptplatine*%
X127000000Y-94500000D03*
%TD*%
D10*
%TO.P,H1,1,1*%
%TO.N,/+5V_IN_Hauptplatine*%
X132270000Y-79090000D03*
D11*
X132270000Y-79090000D03*
%TD*%
D10*
%TO.P,H3,1,1*%
%TO.N,GND*%
X128500000Y-82500000D03*
D11*
X128500000Y-82500000D03*
%TD*%
D12*
%TO.P,J5,1,Pin_1*%
%TO.N,GND*%
X130000000Y-65800000D03*
%TD*%
D13*
%TO.P,C1,1*%
%TO.N,/+5V_IN_Hauptplatine*%
X135362500Y-68500000D03*
%TO.P,C1,2*%
%TO.N,GND*%
X133637500Y-68500000D03*
%TD*%
D12*
%TO.P,J1,1,Pin_1*%
%TO.N,/+5V_IN_Hauptplatine*%
X128500000Y-89600000D03*
%TD*%
%TO.P,J2,1,Pin_1*%
%TO.N,GND*%
X127790000Y-85510000D03*
%TD*%
D14*
%TO.P,D1,1,VDD*%
%TO.N,/+5V_IN_Hauptplatine*%
X134326334Y-71679788D03*
%TO.P,D1,2,DOUT*%
%TO.N,/Data_OUT_Hinterbein_hinten_Seite2*%
X131187850Y-70660034D03*
%TO.P,D1,3,VSS*%
%TO.N,GND*%
X129673666Y-75320212D03*
%TO.P,D1,4,DIN*%
%TO.N,/Data_IN_Hauptplatine*%
X132812150Y-76339966D03*
%TD*%
D12*
%TO.P,J4,1,Pin_1*%
%TO.N,/+5V_IN_Hauptplatine*%
X135300000Y-65460000D03*
%TD*%
D15*
%TO.N,*%
X131600000Y-65000000D02*
X132100000Y-65000000D01*
X134700000Y-63400000D02*
X135300000Y-63400000D01*
X135000000Y-63100000D02*
X135000000Y-63700000D01*
X127100000Y-83700000D02*
X127500000Y-83700000D01*
X128500000Y-91400000D02*
X128500000Y-92000000D01*
X128200000Y-91700000D02*
X128800000Y-91700000D01*
D16*
%TO.N,GND*%
X130180000Y-75826546D02*
X130180000Y-80820000D01*
X129673666Y-75320212D02*
X130180000Y-75826546D01*
D17*
X133000000Y-68500000D02*
X133000000Y-69680000D01*
D16*
X129673666Y-74826334D02*
X129673666Y-75320212D01*
X133000000Y-67000000D02*
X133000000Y-71500000D01*
X128500000Y-82500000D02*
X128500000Y-85500000D01*
D17*
X133637500Y-68500000D02*
X133000000Y-68500000D01*
D16*
X131800000Y-65800000D02*
X133000000Y-67000000D01*
D17*
X133000000Y-69680000D02*
X133000000Y-71500000D01*
D16*
X130000000Y-65800000D02*
X131800000Y-65800000D01*
X130180000Y-80820000D02*
X128500000Y-82500000D01*
X133000000Y-71500000D02*
X129673666Y-74826334D01*
X128500000Y-85500000D02*
X128100000Y-85900000D01*
D17*
X133000000Y-69680000D02*
X133000000Y-67000000D01*
D16*
%TO.N,/+5V_IN_Hauptplatine*%
X135000000Y-70000000D02*
X134326334Y-70673666D01*
X136515599Y-66675599D02*
X135300000Y-65460000D01*
D17*
X134326334Y-71679788D02*
X134326334Y-71073666D01*
D16*
X136250000Y-68500000D02*
X135362500Y-68500000D01*
X136515599Y-68344511D02*
X136515599Y-66675599D01*
X129864202Y-88984664D02*
X135982109Y-70000000D01*
X129864202Y-88984664D02*
X129115336Y-88984664D01*
X135982109Y-70000000D02*
X136515599Y-68344511D01*
X128500000Y-89600000D02*
X129248866Y-89600000D01*
X134326334Y-70673666D02*
X134326334Y-71679788D01*
D17*
X136515599Y-68500000D02*
X136515599Y-68344511D01*
D16*
X129115336Y-88984664D02*
X128500000Y-89600000D01*
X135982109Y-70000000D02*
X135000000Y-70000000D01*
D17*
X136515599Y-68500000D02*
X136250000Y-68500000D01*
X136250000Y-68500000D02*
X135275000Y-68500000D01*
X136032423Y-70000000D02*
X136515599Y-68500000D01*
%TO.N,/Data_OUT_Hinterbein_hinten_Seite2*%
X129500000Y-68500000D02*
X128500000Y-69500000D01*
X129000000Y-72500000D02*
X129347884Y-72500000D01*
X128500000Y-69500000D02*
X128500000Y-72000000D01*
X129347884Y-72500000D02*
X131187850Y-70660034D01*
X128500000Y-72000000D02*
X129000000Y-72500000D01*
%TO.N,/Data_IN_Hauptplatine*%
X130851000Y-78467686D02*
X130851000Y-82169000D01*
X127100000Y-87800000D02*
X126647496Y-88252504D01*
X129578111Y-87750000D02*
X129528111Y-87800000D01*
X129528111Y-87800000D02*
X127100000Y-87800000D01*
X126647496Y-94147496D02*
X127000000Y-94500000D01*
X129578111Y-83441889D02*
X129578111Y-87750000D01*
X126647496Y-88252504D02*
X126647496Y-94147496D01*
X130851000Y-82169000D02*
X129578111Y-83441889D01*
X132812150Y-76506536D02*
X130851000Y-78467686D01*
X132812150Y-76339966D02*
X132812150Y-76506536D01*
%TD*%
M02*
