%TF.GenerationSoftware,KiCad,Pcbnew,9.0.5*%
%TF.CreationDate,2026-01-12T14:16:56+01:00*%
%TF.ProjectId,K_rper_Seite1,4bf67270-6572-45f5-9365-697465312e6b,rev?*%
%TF.SameCoordinates,Original*%
%TF.FileFunction,Soldermask,Top*%
%TF.FilePolarity,Negative*%
%FSLAX46Y46*%
G04 Gerber Fmt 4.6, Leading zero omitted, Abs format (unit mm)*
G04 Created by KiCad (PCBNEW 9.0.5) date 2026-01-12 14:16:56*
%MOMM*%
%LPD*%
G01*
G04 APERTURE LIST*
G04 Aperture macros list*
%AMRoundRect*
0 Rectangle with rounded corners*
0 $1 Rounding radius*
0 $2 $3 $4 $5 $6 $7 $8 $9 X,Y pos of 4 corners*
0 Add a 4 corners polygon primitive as box body*
4,1,4,$2,$3,$4,$5,$6,$7,$8,$9,$2,$3,0*
0 Add four circle primitives for the rounded corners*
1,1,$1+$1,$2,$3*
1,1,$1+$1,$4,$5*
1,1,$1+$1,$6,$7*
1,1,$1+$1,$8,$9*
0 Add four rect primitives between the rounded corners*
20,1,$1+$1,$2,$3,$4,$5,0*
20,1,$1+$1,$4,$5,$6,$7,0*
20,1,$1+$1,$6,$7,$8,$9,0*
20,1,$1+$1,$8,$9,$2,$3,0*%
%AMRotRect*
0 Rectangle, with rotation*
0 The origin of the aperture is its center*
0 $1 length*
0 $2 width*
0 $3 Rotation angle, in degrees counterclockwise*
0 Add horizontal line*
21,1,$1,$2,0,0,$3*%
G04 Aperture macros list end*
%ADD10RoundRect,0.100000X-0.130000X-0.100000X0.130000X-0.100000X0.130000X0.100000X-0.130000X0.100000X0*%
%ADD11RoundRect,0.100000X-0.100000X0.130000X-0.100000X-0.130000X0.100000X-0.130000X0.100000X0.130000X0*%
%ADD12RotRect,1.500000X1.500000X45.000000*%
%ADD13RoundRect,0.090000X-0.660000X-0.360000X0.660000X-0.360000X0.660000X0.360000X-0.660000X0.360000X0*%
%ADD14RoundRect,0.100000X-0.150487X0.065220X-0.024437X-0.162182X0.150487X-0.065220X0.024437X0.162182X0*%
%ADD15RoundRect,0.090000X-0.721249X0.212132X0.212132X-0.721249X0.721249X-0.212132X-0.212132X0.721249X0*%
%ADD16RoundRect,0.100000X-0.052228X0.155474X-0.136876X-0.090361X0.052228X-0.155474X0.136876X0.090361X0*%
%ADD17C,1.000000*%
%ADD18C,2.000000*%
%ADD19RoundRect,0.090000X-0.360000X0.660000X-0.360000X-0.660000X0.360000X-0.660000X0.360000X0.660000X0*%
%ADD20R,2.000000X2.000000*%
%ADD21RoundRect,0.100000X0.130000X0.100000X-0.130000X0.100000X-0.130000X-0.100000X0.130000X-0.100000X0*%
%ADD22RoundRect,0.090000X0.435390X0.612891X-0.751018X0.034241X-0.435390X-0.612891X0.751018X-0.034241X0*%
%ADD23RoundRect,0.100000X0.021213X0.162635X-0.162635X-0.021213X-0.021213X-0.162635X0.162635X0.021213X0*%
%ADD24RoundRect,0.090000X0.437750X-0.611207X0.276883X0.698953X-0.437750X0.611207X-0.276883X-0.698953X0*%
%ADD25RoundRect,0.090000X-0.738943X-0.138429X0.516451X-0.546332X0.738943X0.138429X-0.516451X0.546332X0*%
%ADD26RoundRect,0.100000X0.145571X-0.075558X0.035690X0.160082X-0.145571X0.075558X-0.035690X-0.160082X0*%
%ADD27RoundRect,0.090000X-0.402718X-0.634837X0.751780X0.005111X0.402718X0.634837X-0.751780X-0.005111X0*%
G04 APERTURE END LIST*
D10*
%TO.C,C4*%
X92360000Y-128500000D03*
X93000000Y-128500000D03*
%TD*%
D11*
%TO.C,C3*%
X106000000Y-111680000D03*
X106000000Y-112320000D03*
%TD*%
D12*
%TO.C,REF\u002A\u002A*%
X153200000Y-126700000D03*
%TD*%
D13*
%TO.C,D2*%
X135550000Y-121350000D03*
X135550000Y-124650000D03*
X140450000Y-124650000D03*
X140450000Y-121350000D03*
%TD*%
D14*
%TO.C,C8*%
X85842882Y-80369094D03*
X86153160Y-80928850D03*
%TD*%
D12*
%TO.C,REF\u002A\u002A*%
X170600000Y-110100000D03*
%TD*%
D15*
%TO.C,D7*%
X105934315Y-69100862D03*
X103600862Y-71434315D03*
X107065685Y-74899138D03*
X109399138Y-72565685D03*
%TD*%
D16*
%TO.C,C5*%
X77854182Y-100127434D03*
X77645818Y-100732566D03*
%TD*%
D17*
%TO.C,H6*%
X183000000Y-99000000D03*
D18*
X183000000Y-99000000D03*
%TD*%
D12*
%TO.C,REF\u002A\u002A*%
X169500000Y-107500000D03*
%TD*%
D19*
%TO.C,D6*%
X114150000Y-95050000D03*
X110850000Y-95050000D03*
X110850000Y-99950000D03*
X114150000Y-99950000D03*
%TD*%
D17*
%TO.C,H5*%
X186000000Y-100000000D03*
D18*
X186000000Y-100000000D03*
%TD*%
D11*
%TO.C,C1*%
X141500000Y-133180000D03*
X141500000Y-133820000D03*
%TD*%
D17*
%TO.C,H3*%
X110500000Y-105500000D03*
D18*
X110500000Y-105500000D03*
%TD*%
D20*
%TO.C,J3*%
X151000000Y-142500000D03*
%TD*%
D12*
%TO.C,REF\u002A\u002A*%
X151250000Y-124750000D03*
%TD*%
D21*
%TO.C,C6*%
X113475000Y-92000000D03*
X112835000Y-92000000D03*
%TD*%
D22*
%TO.C,D9*%
X180425357Y-104909001D03*
X178978733Y-101942981D03*
X174574643Y-104090999D03*
X176021267Y-107057019D03*
%TD*%
D17*
%TO.C,H7*%
X148000000Y-139000000D03*
D18*
X148000000Y-139000000D03*
%TD*%
D23*
%TO.C,C7*%
X103071274Y-67773726D03*
X102618726Y-68226274D03*
%TD*%
D20*
%TO.C,J2*%
X152000000Y-139000000D03*
%TD*%
D24*
%TO.C,D4*%
X91360879Y-125432822D03*
X94636281Y-125030654D03*
X94039121Y-120167178D03*
X90763719Y-120569346D03*
%TD*%
D11*
%TO.C,C2*%
X132500000Y-122180000D03*
X132500000Y-122820000D03*
%TD*%
D25*
%TO.C,D5*%
X80429789Y-99673665D03*
X79410034Y-102812151D03*
X84070211Y-104326335D03*
X85089966Y-101187849D03*
%TD*%
D26*
%TO.C,C9*%
X183135238Y-102790018D03*
X182864762Y-102209982D03*
%TD*%
D27*
%TO.C,D8*%
X87900129Y-78113755D03*
X89500000Y-81000000D03*
X93785635Y-78624433D03*
X92185764Y-75738188D03*
%TD*%
D17*
%TO.C,H2*%
X145000000Y-128000000D03*
D18*
X145000000Y-128000000D03*
%TD*%
D17*
%TO.C,H1*%
X114500000Y-105500000D03*
D18*
X114500000Y-105500000D03*
%TD*%
D13*
%TO.C,D3*%
X109050000Y-110850000D03*
X109050000Y-114150000D03*
X113950000Y-114150000D03*
X113950000Y-110850000D03*
%TD*%
D20*
%TO.C,J1*%
X153500000Y-135500000D03*
%TD*%
D17*
%TO.C,H4*%
X189000000Y-101000000D03*
D18*
X189000000Y-101000000D03*
%TD*%
D13*
%TO.C,D1*%
X144550000Y-132350000D03*
X144550000Y-135650000D03*
X149450000Y-135650000D03*
X149450000Y-132350000D03*
%TD*%
M02*
