%TF.GenerationSoftware,KiCad,Pcbnew,9.0.5*%
%TF.CreationDate,2026-01-12T14:16:56+01:00*%
%TF.ProjectId,K_rper_Seite1,4bf67270-6572-45f5-9365-697465312e6b,rev?*%
%TF.SameCoordinates,Original*%
%TF.FileFunction,Legend,Top*%
%TF.FilePolarity,Positive*%
%FSLAX46Y46*%
G04 Gerber Fmt 4.6, Leading zero omitted, Abs format (unit mm)*
G04 Created by KiCad (PCBNEW 9.0.5) date 2026-01-12 14:16:56*
%MOMM*%
%LPD*%
G01*
G04 APERTURE LIST*
%ADD10C,0.150000*%
%ADD11C,0.100000*%
%ADD12C,0.120000*%
G04 APERTURE END LIST*
D10*
X92583333Y-130359580D02*
X92535714Y-130407200D01*
X92535714Y-130407200D02*
X92392857Y-130454819D01*
X92392857Y-130454819D02*
X92297619Y-130454819D01*
X92297619Y-130454819D02*
X92154762Y-130407200D01*
X92154762Y-130407200D02*
X92059524Y-130311961D01*
X92059524Y-130311961D02*
X92011905Y-130216723D01*
X92011905Y-130216723D02*
X91964286Y-130026247D01*
X91964286Y-130026247D02*
X91964286Y-129883390D01*
X91964286Y-129883390D02*
X92011905Y-129692914D01*
X92011905Y-129692914D02*
X92059524Y-129597676D01*
X92059524Y-129597676D02*
X92154762Y-129502438D01*
X92154762Y-129502438D02*
X92297619Y-129454819D01*
X92297619Y-129454819D02*
X92392857Y-129454819D01*
X92392857Y-129454819D02*
X92535714Y-129502438D01*
X92535714Y-129502438D02*
X92583333Y-129550057D01*
X93440476Y-129788152D02*
X93440476Y-130454819D01*
X93202381Y-129407200D02*
X92964286Y-130121485D01*
X92964286Y-130121485D02*
X93583333Y-130121485D01*
X105109580Y-112416666D02*
X105157200Y-112464285D01*
X105157200Y-112464285D02*
X105204819Y-112607142D01*
X105204819Y-112607142D02*
X105204819Y-112702380D01*
X105204819Y-112702380D02*
X105157200Y-112845237D01*
X105157200Y-112845237D02*
X105061961Y-112940475D01*
X105061961Y-112940475D02*
X104966723Y-112988094D01*
X104966723Y-112988094D02*
X104776247Y-113035713D01*
X104776247Y-113035713D02*
X104633390Y-113035713D01*
X104633390Y-113035713D02*
X104442914Y-112988094D01*
X104442914Y-112988094D02*
X104347676Y-112940475D01*
X104347676Y-112940475D02*
X104252438Y-112845237D01*
X104252438Y-112845237D02*
X104204819Y-112702380D01*
X104204819Y-112702380D02*
X104204819Y-112607142D01*
X104204819Y-112607142D02*
X104252438Y-112464285D01*
X104252438Y-112464285D02*
X104300057Y-112416666D01*
X104204819Y-112083332D02*
X104204819Y-111464285D01*
X104204819Y-111464285D02*
X104585771Y-111797618D01*
X104585771Y-111797618D02*
X104585771Y-111654761D01*
X104585771Y-111654761D02*
X104633390Y-111559523D01*
X104633390Y-111559523D02*
X104681009Y-111511904D01*
X104681009Y-111511904D02*
X104776247Y-111464285D01*
X104776247Y-111464285D02*
X105014342Y-111464285D01*
X105014342Y-111464285D02*
X105109580Y-111511904D01*
X105109580Y-111511904D02*
X105157200Y-111559523D01*
X105157200Y-111559523D02*
X105204819Y-111654761D01*
X105204819Y-111654761D02*
X105204819Y-111940475D01*
X105204819Y-111940475D02*
X105157200Y-112035713D01*
X105157200Y-112035713D02*
X105109580Y-112083332D01*
X154778796Y-129564414D02*
X154206376Y-129463399D01*
X154374735Y-129968475D02*
X153667628Y-129261368D01*
X153667628Y-129261368D02*
X153937002Y-128991994D01*
X153937002Y-128991994D02*
X154038018Y-128958323D01*
X154038018Y-128958323D02*
X154105361Y-128958323D01*
X154105361Y-128958323D02*
X154206376Y-128991994D01*
X154206376Y-128991994D02*
X154307392Y-129093010D01*
X154307392Y-129093010D02*
X154341063Y-129194025D01*
X154341063Y-129194025D02*
X154341063Y-129261368D01*
X154341063Y-129261368D02*
X154307392Y-129362384D01*
X154307392Y-129362384D02*
X154038018Y-129631758D01*
X154711453Y-128890979D02*
X154947155Y-128655277D01*
X155418559Y-128924651D02*
X155081842Y-129261368D01*
X155081842Y-129261368D02*
X154374735Y-128554262D01*
X154374735Y-128554262D02*
X154711453Y-128217544D01*
X155586918Y-128015513D02*
X155351216Y-128251216D01*
X155721605Y-128621605D02*
X155014499Y-127914498D01*
X155014499Y-127914498D02*
X155351216Y-127577781D01*
X155721605Y-127207391D02*
X155889964Y-127375750D01*
X155654262Y-127476765D02*
X155889964Y-127375750D01*
X155889964Y-127375750D02*
X155990979Y-127140048D01*
X155923636Y-127611452D02*
X155889964Y-127375750D01*
X155889964Y-127375750D02*
X156125666Y-127409422D01*
X156260354Y-126668643D02*
X156428712Y-126837002D01*
X156193010Y-126938017D02*
X156428712Y-126837002D01*
X156428712Y-126837002D02*
X156529728Y-126601300D01*
X156462384Y-127072704D02*
X156428712Y-126837002D01*
X156428712Y-126837002D02*
X156664415Y-126870674D01*
X137261905Y-121954819D02*
X137261905Y-120954819D01*
X137261905Y-120954819D02*
X137500000Y-120954819D01*
X137500000Y-120954819D02*
X137642857Y-121002438D01*
X137642857Y-121002438D02*
X137738095Y-121097676D01*
X137738095Y-121097676D02*
X137785714Y-121192914D01*
X137785714Y-121192914D02*
X137833333Y-121383390D01*
X137833333Y-121383390D02*
X137833333Y-121526247D01*
X137833333Y-121526247D02*
X137785714Y-121716723D01*
X137785714Y-121716723D02*
X137738095Y-121811961D01*
X137738095Y-121811961D02*
X137642857Y-121907200D01*
X137642857Y-121907200D02*
X137500000Y-121954819D01*
X137500000Y-121954819D02*
X137261905Y-121954819D01*
X138214286Y-121050057D02*
X138261905Y-121002438D01*
X138261905Y-121002438D02*
X138357143Y-120954819D01*
X138357143Y-120954819D02*
X138595238Y-120954819D01*
X138595238Y-120954819D02*
X138690476Y-121002438D01*
X138690476Y-121002438D02*
X138738095Y-121050057D01*
X138738095Y-121050057D02*
X138785714Y-121145295D01*
X138785714Y-121145295D02*
X138785714Y-121240533D01*
X138785714Y-121240533D02*
X138738095Y-121383390D01*
X138738095Y-121383390D02*
X138166667Y-121954819D01*
X138166667Y-121954819D02*
X138785714Y-121954819D01*
X134228571Y-121362295D02*
X133771428Y-121362295D01*
X134000000Y-121362295D02*
X134000000Y-120562295D01*
X134000000Y-120562295D02*
X133923809Y-120676580D01*
X133923809Y-120676580D02*
X133847619Y-120752771D01*
X133847619Y-120752771D02*
X133771428Y-120790866D01*
X84354702Y-81528558D02*
X84289967Y-81509996D01*
X84289967Y-81509996D02*
X84179060Y-81408136D01*
X84179060Y-81408136D02*
X84132887Y-81324839D01*
X84132887Y-81324839D02*
X84105277Y-81176807D01*
X84105277Y-81176807D02*
X84142402Y-81047338D01*
X84142402Y-81047338D02*
X84202613Y-80959517D01*
X84202613Y-80959517D02*
X84346121Y-80825524D01*
X84346121Y-80825524D02*
X84471067Y-80756265D01*
X84471067Y-80756265D02*
X84660747Y-80705569D01*
X84660747Y-80705569D02*
X84767131Y-80701045D01*
X84767131Y-80701045D02*
X84896600Y-80738170D01*
X84896600Y-80738170D02*
X85007507Y-80840030D01*
X85007507Y-80840030D02*
X85053679Y-80923327D01*
X85053679Y-80923327D02*
X85081289Y-81071359D01*
X85081289Y-81071359D02*
X85062727Y-81136093D01*
X85048221Y-81797479D02*
X85043697Y-81691096D01*
X85043697Y-81691096D02*
X85062260Y-81626361D01*
X85062260Y-81626361D02*
X85122471Y-81538540D01*
X85122471Y-81538540D02*
X85164119Y-81515454D01*
X85164119Y-81515454D02*
X85270503Y-81510930D01*
X85270503Y-81510930D02*
X85335237Y-81529493D01*
X85335237Y-81529493D02*
X85423058Y-81589704D01*
X85423058Y-81589704D02*
X85515403Y-81756298D01*
X85515403Y-81756298D02*
X85519927Y-81862681D01*
X85519927Y-81862681D02*
X85501364Y-81927416D01*
X85501364Y-81927416D02*
X85441153Y-82015237D01*
X85441153Y-82015237D02*
X85399505Y-82038323D01*
X85399505Y-82038323D02*
X85293122Y-82042847D01*
X85293122Y-82042847D02*
X85228387Y-82024284D01*
X85228387Y-82024284D02*
X85140566Y-81964073D01*
X85140566Y-81964073D02*
X85048221Y-81797479D01*
X85048221Y-81797479D02*
X84960400Y-81737268D01*
X84960400Y-81737268D02*
X84895666Y-81718706D01*
X84895666Y-81718706D02*
X84789282Y-81723230D01*
X84789282Y-81723230D02*
X84622688Y-81815574D01*
X84622688Y-81815574D02*
X84562477Y-81903395D01*
X84562477Y-81903395D02*
X84543915Y-81968130D01*
X84543915Y-81968130D02*
X84548438Y-82074513D01*
X84548438Y-82074513D02*
X84640783Y-82241108D01*
X84640783Y-82241108D02*
X84728604Y-82301318D01*
X84728604Y-82301318D02*
X84793339Y-82319881D01*
X84793339Y-82319881D02*
X84899722Y-82315357D01*
X84899722Y-82315357D02*
X85066316Y-82223012D01*
X85066316Y-82223012D02*
X85126527Y-82135191D01*
X85126527Y-82135191D02*
X85145090Y-82070457D01*
X85145090Y-82070457D02*
X85140566Y-81964073D01*
X170178796Y-110107917D02*
X169606376Y-110006902D01*
X169774735Y-110511978D02*
X169067628Y-109804871D01*
X169067628Y-109804871D02*
X169337002Y-109535497D01*
X169337002Y-109535497D02*
X169438018Y-109501826D01*
X169438018Y-109501826D02*
X169505361Y-109501826D01*
X169505361Y-109501826D02*
X169606376Y-109535497D01*
X169606376Y-109535497D02*
X169707392Y-109636513D01*
X169707392Y-109636513D02*
X169741063Y-109737528D01*
X169741063Y-109737528D02*
X169741063Y-109804871D01*
X169741063Y-109804871D02*
X169707392Y-109905887D01*
X169707392Y-109905887D02*
X169438018Y-110175261D01*
X170111453Y-109434482D02*
X170347155Y-109198780D01*
X170818559Y-109468154D02*
X170481842Y-109804871D01*
X170481842Y-109804871D02*
X169774735Y-109097765D01*
X169774735Y-109097765D02*
X170111453Y-108761047D01*
X170986918Y-108559016D02*
X170751216Y-108794719D01*
X171121605Y-109165108D02*
X170414499Y-108458001D01*
X170414499Y-108458001D02*
X170751216Y-108121284D01*
X171121605Y-107750894D02*
X171289964Y-107919253D01*
X171054262Y-108020268D02*
X171289964Y-107919253D01*
X171289964Y-107919253D02*
X171390979Y-107683551D01*
X171323636Y-108154955D02*
X171289964Y-107919253D01*
X171289964Y-107919253D02*
X171525666Y-107952925D01*
X171660354Y-107212146D02*
X171828712Y-107380505D01*
X171593010Y-107481520D02*
X171828712Y-107380505D01*
X171828712Y-107380505D02*
X171929728Y-107144803D01*
X171862384Y-107616207D02*
X171828712Y-107380505D01*
X171828712Y-107380505D02*
X172064415Y-107414177D01*
X106656482Y-71049693D02*
X107363589Y-70342587D01*
X107363589Y-70342587D02*
X107531948Y-70510945D01*
X107531948Y-70510945D02*
X107599291Y-70645632D01*
X107599291Y-70645632D02*
X107599291Y-70780319D01*
X107599291Y-70780319D02*
X107565619Y-70881335D01*
X107565619Y-70881335D02*
X107464604Y-71049693D01*
X107464604Y-71049693D02*
X107363589Y-71150709D01*
X107363589Y-71150709D02*
X107195230Y-71251724D01*
X107195230Y-71251724D02*
X107094215Y-71285396D01*
X107094215Y-71285396D02*
X106959528Y-71285396D01*
X106959528Y-71285396D02*
X106824841Y-71218052D01*
X106824841Y-71218052D02*
X106656482Y-71049693D01*
X108003352Y-70982350D02*
X108474757Y-71453754D01*
X108474757Y-71453754D02*
X107464604Y-71857815D01*
X104708387Y-68458008D02*
X104385138Y-68134759D01*
X104546762Y-68296383D02*
X105112448Y-67730698D01*
X105112448Y-67730698D02*
X104977761Y-67757635D01*
X104977761Y-67757635D02*
X104870011Y-67757635D01*
X104870011Y-67757635D02*
X104789199Y-67730698D01*
X77285729Y-102524654D02*
X77315250Y-102585182D01*
X77315250Y-102585182D02*
X77313765Y-102735759D01*
X77313765Y-102735759D02*
X77282759Y-102825808D01*
X77282759Y-102825808D02*
X77191224Y-102945379D01*
X77191224Y-102945379D02*
X77070168Y-103004422D01*
X77070168Y-103004422D02*
X76964616Y-103018440D01*
X76964616Y-103018440D02*
X76769014Y-103001452D01*
X76769014Y-103001452D02*
X76633940Y-102954942D01*
X76633940Y-102954942D02*
X76469344Y-102847904D01*
X76469344Y-102847904D02*
X76394798Y-102771873D01*
X76394798Y-102771873D02*
X76335755Y-102650817D01*
X76335755Y-102650817D02*
X76337240Y-102500240D01*
X76337240Y-102500240D02*
X76368247Y-102410191D01*
X76368247Y-102410191D02*
X76459781Y-102290620D01*
X76459781Y-102290620D02*
X76520309Y-102261098D01*
X76724821Y-101374623D02*
X76569789Y-101824870D01*
X76569789Y-101824870D02*
X77004532Y-102024927D01*
X77004532Y-102024927D02*
X76975011Y-101964399D01*
X76975011Y-101964399D02*
X76960993Y-101858846D01*
X76960993Y-101858846D02*
X77038509Y-101633723D01*
X77038509Y-101633723D02*
X77114540Y-101559177D01*
X77114540Y-101559177D02*
X77175068Y-101529655D01*
X77175068Y-101529655D02*
X77280621Y-101515637D01*
X77280621Y-101515637D02*
X77505744Y-101593153D01*
X77505744Y-101593153D02*
X77580290Y-101669184D01*
X77580290Y-101669184D02*
X77609812Y-101729712D01*
X77609812Y-101729712D02*
X77623830Y-101835265D01*
X77623830Y-101835265D02*
X77546314Y-102060388D01*
X77546314Y-102060388D02*
X77470283Y-102134935D01*
X77470283Y-102134935D02*
X77409755Y-102164456D01*
D11*
X180238095Y-98207419D02*
X180238095Y-97207419D01*
X180238095Y-97683609D02*
X180809523Y-97683609D01*
X180809523Y-98207419D02*
X180809523Y-97207419D01*
X181714285Y-97207419D02*
X181523809Y-97207419D01*
X181523809Y-97207419D02*
X181428571Y-97255038D01*
X181428571Y-97255038D02*
X181380952Y-97302657D01*
X181380952Y-97302657D02*
X181285714Y-97445514D01*
X181285714Y-97445514D02*
X181238095Y-97635990D01*
X181238095Y-97635990D02*
X181238095Y-98016942D01*
X181238095Y-98016942D02*
X181285714Y-98112180D01*
X181285714Y-98112180D02*
X181333333Y-98159800D01*
X181333333Y-98159800D02*
X181428571Y-98207419D01*
X181428571Y-98207419D02*
X181619047Y-98207419D01*
X181619047Y-98207419D02*
X181714285Y-98159800D01*
X181714285Y-98159800D02*
X181761904Y-98112180D01*
X181761904Y-98112180D02*
X181809523Y-98016942D01*
X181809523Y-98016942D02*
X181809523Y-97778847D01*
X181809523Y-97778847D02*
X181761904Y-97683609D01*
X181761904Y-97683609D02*
X181714285Y-97635990D01*
X181714285Y-97635990D02*
X181619047Y-97588371D01*
X181619047Y-97588371D02*
X181428571Y-97588371D01*
X181428571Y-97588371D02*
X181333333Y-97635990D01*
X181333333Y-97635990D02*
X181285714Y-97683609D01*
X181285714Y-97683609D02*
X181238095Y-97778847D01*
D10*
X167713484Y-107599102D02*
X167141064Y-107498087D01*
X167309423Y-108003163D02*
X166602316Y-107296056D01*
X166602316Y-107296056D02*
X166871690Y-107026682D01*
X166871690Y-107026682D02*
X166972706Y-106993011D01*
X166972706Y-106993011D02*
X167040049Y-106993011D01*
X167040049Y-106993011D02*
X167141064Y-107026682D01*
X167141064Y-107026682D02*
X167242080Y-107127698D01*
X167242080Y-107127698D02*
X167275751Y-107228713D01*
X167275751Y-107228713D02*
X167275751Y-107296056D01*
X167275751Y-107296056D02*
X167242080Y-107397072D01*
X167242080Y-107397072D02*
X166972706Y-107666446D01*
X167646141Y-106925667D02*
X167881843Y-106689965D01*
X168353247Y-106959339D02*
X168016530Y-107296056D01*
X168016530Y-107296056D02*
X167309423Y-106588950D01*
X167309423Y-106588950D02*
X167646141Y-106252232D01*
X168521606Y-106050201D02*
X168285904Y-106285904D01*
X168656293Y-106656293D02*
X167949187Y-105949186D01*
X167949187Y-105949186D02*
X168285904Y-105612469D01*
X168656293Y-105242079D02*
X168824652Y-105410438D01*
X168588950Y-105511453D02*
X168824652Y-105410438D01*
X168824652Y-105410438D02*
X168925667Y-105174736D01*
X168858324Y-105646140D02*
X168824652Y-105410438D01*
X168824652Y-105410438D02*
X169060354Y-105444110D01*
X169195042Y-104703331D02*
X169363400Y-104871690D01*
X169127698Y-104972705D02*
X169363400Y-104871690D01*
X169363400Y-104871690D02*
X169464416Y-104635988D01*
X169397072Y-105107392D02*
X169363400Y-104871690D01*
X169363400Y-104871690D02*
X169599103Y-104905362D01*
X111204819Y-98238094D02*
X110204819Y-98238094D01*
X110204819Y-98238094D02*
X110204819Y-97999999D01*
X110204819Y-97999999D02*
X110252438Y-97857142D01*
X110252438Y-97857142D02*
X110347676Y-97761904D01*
X110347676Y-97761904D02*
X110442914Y-97714285D01*
X110442914Y-97714285D02*
X110633390Y-97666666D01*
X110633390Y-97666666D02*
X110776247Y-97666666D01*
X110776247Y-97666666D02*
X110966723Y-97714285D01*
X110966723Y-97714285D02*
X111061961Y-97761904D01*
X111061961Y-97761904D02*
X111157200Y-97857142D01*
X111157200Y-97857142D02*
X111204819Y-97999999D01*
X111204819Y-97999999D02*
X111204819Y-98238094D01*
X110204819Y-96809523D02*
X110204819Y-96999999D01*
X110204819Y-96999999D02*
X110252438Y-97095237D01*
X110252438Y-97095237D02*
X110300057Y-97142856D01*
X110300057Y-97142856D02*
X110442914Y-97238094D01*
X110442914Y-97238094D02*
X110633390Y-97285713D01*
X110633390Y-97285713D02*
X111014342Y-97285713D01*
X111014342Y-97285713D02*
X111109580Y-97238094D01*
X111109580Y-97238094D02*
X111157200Y-97190475D01*
X111157200Y-97190475D02*
X111204819Y-97095237D01*
X111204819Y-97095237D02*
X111204819Y-96904761D01*
X111204819Y-96904761D02*
X111157200Y-96809523D01*
X111157200Y-96809523D02*
X111109580Y-96761904D01*
X111109580Y-96761904D02*
X111014342Y-96714285D01*
X111014342Y-96714285D02*
X110776247Y-96714285D01*
X110776247Y-96714285D02*
X110681009Y-96761904D01*
X110681009Y-96761904D02*
X110633390Y-96809523D01*
X110633390Y-96809523D02*
X110585771Y-96904761D01*
X110585771Y-96904761D02*
X110585771Y-97095237D01*
X110585771Y-97095237D02*
X110633390Y-97190475D01*
X110633390Y-97190475D02*
X110681009Y-97238094D01*
X110681009Y-97238094D02*
X110776247Y-97285713D01*
X115887704Y-93478571D02*
X115887704Y-93021428D01*
X115887704Y-93250000D02*
X116687704Y-93250000D01*
X116687704Y-93250000D02*
X116573419Y-93173809D01*
X116573419Y-93173809D02*
X116497228Y-93097619D01*
X116497228Y-93097619D02*
X116459133Y-93021428D01*
D11*
X185238095Y-102457419D02*
X185238095Y-101457419D01*
X185238095Y-101933609D02*
X185809523Y-101933609D01*
X185809523Y-102457419D02*
X185809523Y-101457419D01*
X186761904Y-101457419D02*
X186285714Y-101457419D01*
X186285714Y-101457419D02*
X186238095Y-101933609D01*
X186238095Y-101933609D02*
X186285714Y-101885990D01*
X186285714Y-101885990D02*
X186380952Y-101838371D01*
X186380952Y-101838371D02*
X186619047Y-101838371D01*
X186619047Y-101838371D02*
X186714285Y-101885990D01*
X186714285Y-101885990D02*
X186761904Y-101933609D01*
X186761904Y-101933609D02*
X186809523Y-102028847D01*
X186809523Y-102028847D02*
X186809523Y-102266942D01*
X186809523Y-102266942D02*
X186761904Y-102362180D01*
X186761904Y-102362180D02*
X186714285Y-102409800D01*
X186714285Y-102409800D02*
X186619047Y-102457419D01*
X186619047Y-102457419D02*
X186380952Y-102457419D01*
X186380952Y-102457419D02*
X186285714Y-102409800D01*
X186285714Y-102409800D02*
X186238095Y-102362180D01*
D10*
X143109580Y-133166666D02*
X143157200Y-133214285D01*
X143157200Y-133214285D02*
X143204819Y-133357142D01*
X143204819Y-133357142D02*
X143204819Y-133452380D01*
X143204819Y-133452380D02*
X143157200Y-133595237D01*
X143157200Y-133595237D02*
X143061961Y-133690475D01*
X143061961Y-133690475D02*
X142966723Y-133738094D01*
X142966723Y-133738094D02*
X142776247Y-133785713D01*
X142776247Y-133785713D02*
X142633390Y-133785713D01*
X142633390Y-133785713D02*
X142442914Y-133738094D01*
X142442914Y-133738094D02*
X142347676Y-133690475D01*
X142347676Y-133690475D02*
X142252438Y-133595237D01*
X142252438Y-133595237D02*
X142204819Y-133452380D01*
X142204819Y-133452380D02*
X142204819Y-133357142D01*
X142204819Y-133357142D02*
X142252438Y-133214285D01*
X142252438Y-133214285D02*
X142300057Y-133166666D01*
X143204819Y-132214285D02*
X143204819Y-132785713D01*
X143204819Y-132499999D02*
X142204819Y-132499999D01*
X142204819Y-132499999D02*
X142347676Y-132595237D01*
X142347676Y-132595237D02*
X142442914Y-132690475D01*
X142442914Y-132690475D02*
X142490533Y-132785713D01*
D11*
X109738095Y-104957419D02*
X109738095Y-103957419D01*
X109738095Y-104433609D02*
X110309523Y-104433609D01*
X110309523Y-104957419D02*
X110309523Y-103957419D01*
X110690476Y-103957419D02*
X111309523Y-103957419D01*
X111309523Y-103957419D02*
X110976190Y-104338371D01*
X110976190Y-104338371D02*
X111119047Y-104338371D01*
X111119047Y-104338371D02*
X111214285Y-104385990D01*
X111214285Y-104385990D02*
X111261904Y-104433609D01*
X111261904Y-104433609D02*
X111309523Y-104528847D01*
X111309523Y-104528847D02*
X111309523Y-104766942D01*
X111309523Y-104766942D02*
X111261904Y-104862180D01*
X111261904Y-104862180D02*
X111214285Y-104909800D01*
X111214285Y-104909800D02*
X111119047Y-104957419D01*
X111119047Y-104957419D02*
X110833333Y-104957419D01*
X110833333Y-104957419D02*
X110738095Y-104909800D01*
X110738095Y-104909800D02*
X110690476Y-104862180D01*
D10*
X147916666Y-141204819D02*
X147916666Y-141919104D01*
X147916666Y-141919104D02*
X147869047Y-142061961D01*
X147869047Y-142061961D02*
X147773809Y-142157200D01*
X147773809Y-142157200D02*
X147630952Y-142204819D01*
X147630952Y-142204819D02*
X147535714Y-142204819D01*
X148297619Y-141204819D02*
X148916666Y-141204819D01*
X148916666Y-141204819D02*
X148583333Y-141585771D01*
X148583333Y-141585771D02*
X148726190Y-141585771D01*
X148726190Y-141585771D02*
X148821428Y-141633390D01*
X148821428Y-141633390D02*
X148869047Y-141681009D01*
X148869047Y-141681009D02*
X148916666Y-141776247D01*
X148916666Y-141776247D02*
X148916666Y-142014342D01*
X148916666Y-142014342D02*
X148869047Y-142109580D01*
X148869047Y-142109580D02*
X148821428Y-142157200D01*
X148821428Y-142157200D02*
X148726190Y-142204819D01*
X148726190Y-142204819D02*
X148440476Y-142204819D01*
X148440476Y-142204819D02*
X148345238Y-142157200D01*
X148345238Y-142157200D02*
X148297619Y-142109580D01*
X149463484Y-124849102D02*
X148891064Y-124748087D01*
X149059423Y-125253163D02*
X148352316Y-124546056D01*
X148352316Y-124546056D02*
X148621690Y-124276682D01*
X148621690Y-124276682D02*
X148722706Y-124243011D01*
X148722706Y-124243011D02*
X148790049Y-124243011D01*
X148790049Y-124243011D02*
X148891064Y-124276682D01*
X148891064Y-124276682D02*
X148992080Y-124377698D01*
X148992080Y-124377698D02*
X149025751Y-124478713D01*
X149025751Y-124478713D02*
X149025751Y-124546056D01*
X149025751Y-124546056D02*
X148992080Y-124647072D01*
X148992080Y-124647072D02*
X148722706Y-124916446D01*
X149396141Y-124175667D02*
X149631843Y-123939965D01*
X150103247Y-124209339D02*
X149766530Y-124546056D01*
X149766530Y-124546056D02*
X149059423Y-123838950D01*
X149059423Y-123838950D02*
X149396141Y-123502232D01*
X150271606Y-123300201D02*
X150035904Y-123535904D01*
X150406293Y-123906293D02*
X149699187Y-123199186D01*
X149699187Y-123199186D02*
X150035904Y-122862469D01*
X150406293Y-122492079D02*
X150574652Y-122660438D01*
X150338950Y-122761453D02*
X150574652Y-122660438D01*
X150574652Y-122660438D02*
X150675667Y-122424736D01*
X150608324Y-122896140D02*
X150574652Y-122660438D01*
X150574652Y-122660438D02*
X150810354Y-122694110D01*
X150945042Y-121953331D02*
X151113400Y-122121690D01*
X150877698Y-122222705D02*
X151113400Y-122121690D01*
X151113400Y-122121690D02*
X151214416Y-121885988D01*
X151147072Y-122357392D02*
X151113400Y-122121690D01*
X151113400Y-122121690D02*
X151349103Y-122155362D01*
X112833333Y-90859580D02*
X112785714Y-90907200D01*
X112785714Y-90907200D02*
X112642857Y-90954819D01*
X112642857Y-90954819D02*
X112547619Y-90954819D01*
X112547619Y-90954819D02*
X112404762Y-90907200D01*
X112404762Y-90907200D02*
X112309524Y-90811961D01*
X112309524Y-90811961D02*
X112261905Y-90716723D01*
X112261905Y-90716723D02*
X112214286Y-90526247D01*
X112214286Y-90526247D02*
X112214286Y-90383390D01*
X112214286Y-90383390D02*
X112261905Y-90192914D01*
X112261905Y-90192914D02*
X112309524Y-90097676D01*
X112309524Y-90097676D02*
X112404762Y-90002438D01*
X112404762Y-90002438D02*
X112547619Y-89954819D01*
X112547619Y-89954819D02*
X112642857Y-89954819D01*
X112642857Y-89954819D02*
X112785714Y-90002438D01*
X112785714Y-90002438D02*
X112833333Y-90050057D01*
X113690476Y-89954819D02*
X113500000Y-89954819D01*
X113500000Y-89954819D02*
X113404762Y-90002438D01*
X113404762Y-90002438D02*
X113357143Y-90050057D01*
X113357143Y-90050057D02*
X113261905Y-90192914D01*
X113261905Y-90192914D02*
X113214286Y-90383390D01*
X113214286Y-90383390D02*
X113214286Y-90764342D01*
X113214286Y-90764342D02*
X113261905Y-90859580D01*
X113261905Y-90859580D02*
X113309524Y-90907200D01*
X113309524Y-90907200D02*
X113404762Y-90954819D01*
X113404762Y-90954819D02*
X113595238Y-90954819D01*
X113595238Y-90954819D02*
X113690476Y-90907200D01*
X113690476Y-90907200D02*
X113738095Y-90859580D01*
X113738095Y-90859580D02*
X113785714Y-90764342D01*
X113785714Y-90764342D02*
X113785714Y-90526247D01*
X113785714Y-90526247D02*
X113738095Y-90431009D01*
X113738095Y-90431009D02*
X113690476Y-90383390D01*
X113690476Y-90383390D02*
X113595238Y-90335771D01*
X113595238Y-90335771D02*
X113404762Y-90335771D01*
X113404762Y-90335771D02*
X113309524Y-90383390D01*
X113309524Y-90383390D02*
X113261905Y-90431009D01*
X113261905Y-90431009D02*
X113214286Y-90526247D01*
X177535984Y-106482348D02*
X177097613Y-105583554D01*
X177097613Y-105583554D02*
X177311611Y-105479179D01*
X177311611Y-105479179D02*
X177460885Y-105459355D01*
X177460885Y-105459355D02*
X177588234Y-105503205D01*
X177588234Y-105503205D02*
X177672784Y-105567929D01*
X177672784Y-105567929D02*
X177799083Y-105718253D01*
X177799083Y-105718253D02*
X177861707Y-105846652D01*
X177861707Y-105846652D02*
X177902407Y-106038726D01*
X177902407Y-106038726D02*
X177901357Y-106145200D01*
X177901357Y-106145200D02*
X177857507Y-106272549D01*
X177857507Y-106272549D02*
X177749982Y-106377974D01*
X177749982Y-106377974D02*
X177535984Y-106482348D01*
X178477578Y-106023102D02*
X178648776Y-105939602D01*
X178648776Y-105939602D02*
X178713501Y-105855053D01*
X178713501Y-105855053D02*
X178735426Y-105791378D01*
X178735426Y-105791378D02*
X178758401Y-105621230D01*
X178758401Y-105621230D02*
X178717701Y-105429156D01*
X178717701Y-105429156D02*
X178550703Y-105086758D01*
X178550703Y-105086758D02*
X178466154Y-105022034D01*
X178466154Y-105022034D02*
X178402479Y-105000109D01*
X178402479Y-105000109D02*
X178296005Y-104999059D01*
X178296005Y-104999059D02*
X178124806Y-105082558D01*
X178124806Y-105082558D02*
X178060081Y-105167107D01*
X178060081Y-105167107D02*
X178038156Y-105230782D01*
X178038156Y-105230782D02*
X178037106Y-105337256D01*
X178037106Y-105337256D02*
X178141480Y-105551255D01*
X178141480Y-105551255D02*
X178226030Y-105615979D01*
X178226030Y-105615979D02*
X178289704Y-105637904D01*
X178289704Y-105637904D02*
X178396179Y-105638954D01*
X178396179Y-105638954D02*
X178567377Y-105555455D01*
X178567377Y-105555455D02*
X178632102Y-105470906D01*
X178632102Y-105470906D02*
X178654027Y-105407231D01*
X178654027Y-105407231D02*
X178655077Y-105300757D01*
X182364258Y-104350742D02*
X181953381Y-104551140D01*
X182158820Y-104450941D02*
X181808123Y-103731906D01*
X181808123Y-103731906D02*
X181789743Y-103868025D01*
X181789743Y-103868025D02*
X181754663Y-103969904D01*
X181754663Y-103969904D02*
X181702883Y-104037544D01*
D11*
X147238095Y-138457419D02*
X147238095Y-137457419D01*
X147238095Y-137933609D02*
X147809523Y-137933609D01*
X147809523Y-138457419D02*
X147809523Y-137457419D01*
X148190476Y-137457419D02*
X148857142Y-137457419D01*
X148857142Y-137457419D02*
X148428571Y-138457419D01*
D10*
X101386411Y-68622112D02*
X101386411Y-68689456D01*
X101386411Y-68689456D02*
X101319067Y-68824143D01*
X101319067Y-68824143D02*
X101251724Y-68891486D01*
X101251724Y-68891486D02*
X101117037Y-68958830D01*
X101117037Y-68958830D02*
X100982350Y-68958830D01*
X100982350Y-68958830D02*
X100881335Y-68925158D01*
X100881335Y-68925158D02*
X100712976Y-68824143D01*
X100712976Y-68824143D02*
X100611961Y-68723128D01*
X100611961Y-68723128D02*
X100510945Y-68554769D01*
X100510945Y-68554769D02*
X100477274Y-68453754D01*
X100477274Y-68453754D02*
X100477274Y-68319067D01*
X100477274Y-68319067D02*
X100544617Y-68184380D01*
X100544617Y-68184380D02*
X100611961Y-68117036D01*
X100611961Y-68117036D02*
X100746648Y-68049693D01*
X100746648Y-68049693D02*
X100813991Y-68049693D01*
X100982350Y-67746647D02*
X101453754Y-67275242D01*
X101453754Y-67275242D02*
X101857815Y-68285395D01*
X154416666Y-137454819D02*
X154416666Y-138169104D01*
X154416666Y-138169104D02*
X154369047Y-138311961D01*
X154369047Y-138311961D02*
X154273809Y-138407200D01*
X154273809Y-138407200D02*
X154130952Y-138454819D01*
X154130952Y-138454819D02*
X154035714Y-138454819D01*
X154845238Y-137550057D02*
X154892857Y-137502438D01*
X154892857Y-137502438D02*
X154988095Y-137454819D01*
X154988095Y-137454819D02*
X155226190Y-137454819D01*
X155226190Y-137454819D02*
X155321428Y-137502438D01*
X155321428Y-137502438D02*
X155369047Y-137550057D01*
X155369047Y-137550057D02*
X155416666Y-137645295D01*
X155416666Y-137645295D02*
X155416666Y-137740533D01*
X155416666Y-137740533D02*
X155369047Y-137883390D01*
X155369047Y-137883390D02*
X154797619Y-138454819D01*
X154797619Y-138454819D02*
X155416666Y-138454819D01*
X90708619Y-122322835D02*
X91701166Y-122200966D01*
X91701166Y-122200966D02*
X91730182Y-122437286D01*
X91730182Y-122437286D02*
X91700328Y-122584882D01*
X91700328Y-122584882D02*
X91617406Y-122691016D01*
X91617406Y-122691016D02*
X91528681Y-122749887D01*
X91528681Y-122749887D02*
X91345428Y-122820364D01*
X91345428Y-122820364D02*
X91203636Y-122837774D01*
X91203636Y-122837774D02*
X91008776Y-122813723D01*
X91008776Y-122813723D02*
X90908445Y-122778066D01*
X90908445Y-122778066D02*
X90802310Y-122695144D01*
X90802310Y-122695144D02*
X90737636Y-122559155D01*
X90737636Y-122559155D02*
X90708619Y-122322835D01*
X91544416Y-123659512D02*
X90882719Y-123740758D01*
X91893512Y-123376765D02*
X91155534Y-123227494D01*
X91155534Y-123227494D02*
X91230977Y-123841927D01*
X91931142Y-126694155D02*
X91986854Y-127147890D01*
X91958998Y-126921022D02*
X91164961Y-127018518D01*
X91164961Y-127018518D02*
X91287680Y-127080213D01*
X91287680Y-127080213D02*
X91372588Y-127146550D01*
X91372588Y-127146550D02*
X91419685Y-127217530D01*
X131609580Y-122666666D02*
X131657200Y-122714285D01*
X131657200Y-122714285D02*
X131704819Y-122857142D01*
X131704819Y-122857142D02*
X131704819Y-122952380D01*
X131704819Y-122952380D02*
X131657200Y-123095237D01*
X131657200Y-123095237D02*
X131561961Y-123190475D01*
X131561961Y-123190475D02*
X131466723Y-123238094D01*
X131466723Y-123238094D02*
X131276247Y-123285713D01*
X131276247Y-123285713D02*
X131133390Y-123285713D01*
X131133390Y-123285713D02*
X130942914Y-123238094D01*
X130942914Y-123238094D02*
X130847676Y-123190475D01*
X130847676Y-123190475D02*
X130752438Y-123095237D01*
X130752438Y-123095237D02*
X130704819Y-122952380D01*
X130704819Y-122952380D02*
X130704819Y-122857142D01*
X130704819Y-122857142D02*
X130752438Y-122714285D01*
X130752438Y-122714285D02*
X130800057Y-122666666D01*
X130800057Y-122285713D02*
X130752438Y-122238094D01*
X130752438Y-122238094D02*
X130704819Y-122142856D01*
X130704819Y-122142856D02*
X130704819Y-121904761D01*
X130704819Y-121904761D02*
X130752438Y-121809523D01*
X130752438Y-121809523D02*
X130800057Y-121761904D01*
X130800057Y-121761904D02*
X130895295Y-121714285D01*
X130895295Y-121714285D02*
X130990533Y-121714285D01*
X130990533Y-121714285D02*
X131133390Y-121761904D01*
X131133390Y-121761904D02*
X131704819Y-122333332D01*
X131704819Y-122333332D02*
X131704819Y-121714285D01*
X81907483Y-100704474D02*
X82216500Y-99753418D01*
X82216500Y-99753418D02*
X82442942Y-99826993D01*
X82442942Y-99826993D02*
X82564092Y-99916427D01*
X82564092Y-99916427D02*
X82625239Y-100036434D01*
X82625239Y-100036434D02*
X82641097Y-100141726D01*
X82641097Y-100141726D02*
X82627525Y-100337595D01*
X82627525Y-100337595D02*
X82583380Y-100473460D01*
X82583380Y-100473460D02*
X82479231Y-100639898D01*
X82479231Y-100639898D02*
X82404512Y-100715760D01*
X82404512Y-100715760D02*
X82284505Y-100776907D01*
X82284505Y-100776907D02*
X82133925Y-100778050D01*
X82133925Y-100778050D02*
X81907483Y-100704474D01*
X83620440Y-100209586D02*
X83167556Y-100062435D01*
X83167556Y-100062435D02*
X82975117Y-100500604D01*
X82975117Y-100500604D02*
X83035121Y-100470030D01*
X83035121Y-100470030D02*
X83140412Y-100454172D01*
X83140412Y-100454172D02*
X83366854Y-100527748D01*
X83366854Y-100527748D02*
X83442716Y-100602466D01*
X83442716Y-100602466D02*
X83473289Y-100662470D01*
X83473289Y-100662470D02*
X83489148Y-100767762D01*
X83489148Y-100767762D02*
X83415572Y-100994204D01*
X83415572Y-100994204D02*
X83340854Y-101070065D01*
X83340854Y-101070065D02*
X83280850Y-101100639D01*
X83280850Y-101100639D02*
X83175558Y-101116497D01*
X83175558Y-101116497D02*
X82949116Y-101042921D01*
X82949116Y-101042921D02*
X82873254Y-100968203D01*
X82873254Y-100968203D02*
X82842681Y-100908199D01*
X79045630Y-99657436D02*
X78610861Y-99516171D01*
X78828245Y-99586804D02*
X79075459Y-98825959D01*
X79075459Y-98825959D02*
X78967681Y-98911107D01*
X78967681Y-98911107D02*
X78871676Y-98960024D01*
X78871676Y-98960024D02*
X78787442Y-98972711D01*
X184103672Y-103000914D02*
X184040390Y-102977881D01*
X184040390Y-102977881D02*
X183936859Y-102868533D01*
X183936859Y-102868533D02*
X183896609Y-102782218D01*
X183896609Y-102782218D02*
X183879393Y-102632621D01*
X183879393Y-102632621D02*
X183925458Y-102506057D01*
X183925458Y-102506057D02*
X183991649Y-102422650D01*
X183991649Y-102422650D02*
X184144154Y-102298994D01*
X184144154Y-102298994D02*
X184273627Y-102238620D01*
X184273627Y-102238620D02*
X184466381Y-102201278D01*
X184466381Y-102201278D02*
X184572821Y-102204187D01*
X184572821Y-102204187D02*
X184699385Y-102250252D01*
X184699385Y-102250252D02*
X184802917Y-102359600D01*
X184802917Y-102359600D02*
X184843166Y-102445915D01*
X184843166Y-102445915D02*
X184860383Y-102595512D01*
X184860383Y-102595512D02*
X184837350Y-102658795D01*
X184218604Y-103472739D02*
X184299103Y-103645369D01*
X184299103Y-103645369D02*
X184382510Y-103711559D01*
X184382510Y-103711559D02*
X184445792Y-103734592D01*
X184445792Y-103734592D02*
X184615514Y-103760533D01*
X184615514Y-103760533D02*
X184808268Y-103723192D01*
X184808268Y-103723192D02*
X185153529Y-103562194D01*
X185153529Y-103562194D02*
X185219719Y-103478787D01*
X185219719Y-103478787D02*
X185242752Y-103415505D01*
X185242752Y-103415505D02*
X185245660Y-103309065D01*
X185245660Y-103309065D02*
X185165161Y-103136435D01*
X185165161Y-103136435D02*
X185081754Y-103070245D01*
X185081754Y-103070245D02*
X185018472Y-103047212D01*
X185018472Y-103047212D02*
X184912032Y-103044304D01*
X184912032Y-103044304D02*
X184696245Y-103144927D01*
X184696245Y-103144927D02*
X184630055Y-103228334D01*
X184630055Y-103228334D02*
X184607022Y-103291616D01*
X184607022Y-103291616D02*
X184604114Y-103398056D01*
X184604114Y-103398056D02*
X184684612Y-103570686D01*
X184684612Y-103570686D02*
X184768019Y-103636877D01*
X184768019Y-103636877D02*
X184831301Y-103659909D01*
X184831301Y-103659909D02*
X184937741Y-103662818D01*
X89574948Y-77505629D02*
X89090138Y-76631009D01*
X89090138Y-76631009D02*
X89298381Y-76515578D01*
X89298381Y-76515578D02*
X89446413Y-76487968D01*
X89446413Y-76487968D02*
X89575882Y-76525093D01*
X89575882Y-76525093D02*
X89663703Y-76585304D01*
X89663703Y-76585304D02*
X89797697Y-76728812D01*
X89797697Y-76728812D02*
X89866955Y-76853758D01*
X89866955Y-76853758D02*
X89917651Y-77043438D01*
X89917651Y-77043438D02*
X89922175Y-77149821D01*
X89922175Y-77149821D02*
X89885050Y-77279291D01*
X89885050Y-77279291D02*
X89783191Y-77390198D01*
X89783191Y-77390198D02*
X89574948Y-77505629D01*
X90297479Y-76451778D02*
X90191096Y-76456302D01*
X90191096Y-76456302D02*
X90126361Y-76437739D01*
X90126361Y-76437739D02*
X90038540Y-76377528D01*
X90038540Y-76377528D02*
X90015454Y-76335880D01*
X90015454Y-76335880D02*
X90010930Y-76229496D01*
X90010930Y-76229496D02*
X90029493Y-76164762D01*
X90029493Y-76164762D02*
X90089704Y-76076941D01*
X90089704Y-76076941D02*
X90256298Y-75984596D01*
X90256298Y-75984596D02*
X90362681Y-75980072D01*
X90362681Y-75980072D02*
X90427416Y-75998635D01*
X90427416Y-75998635D02*
X90515237Y-76058846D01*
X90515237Y-76058846D02*
X90538323Y-76100494D01*
X90538323Y-76100494D02*
X90542847Y-76206877D01*
X90542847Y-76206877D02*
X90524284Y-76271612D01*
X90524284Y-76271612D02*
X90464073Y-76359433D01*
X90464073Y-76359433D02*
X90297479Y-76451778D01*
X90297479Y-76451778D02*
X90237268Y-76539599D01*
X90237268Y-76539599D02*
X90218706Y-76604333D01*
X90218706Y-76604333D02*
X90223230Y-76710717D01*
X90223230Y-76710717D02*
X90315574Y-76877311D01*
X90315574Y-76877311D02*
X90403395Y-76937522D01*
X90403395Y-76937522D02*
X90468130Y-76956084D01*
X90468130Y-76956084D02*
X90574513Y-76951561D01*
X90574513Y-76951561D02*
X90741108Y-76859216D01*
X90741108Y-76859216D02*
X90801318Y-76771395D01*
X90801318Y-76771395D02*
X90819881Y-76706660D01*
X90819881Y-76706660D02*
X90815357Y-76600277D01*
X90815357Y-76600277D02*
X90723012Y-76433683D01*
X90723012Y-76433683D02*
X90635191Y-76373472D01*
X90635191Y-76373472D02*
X90570457Y-76354909D01*
X90570457Y-76354909D02*
X90464073Y-76359433D01*
X86944264Y-79114996D02*
X86544438Y-79336623D01*
X86744351Y-79225810D02*
X86356503Y-78526114D01*
X86356503Y-78526114D02*
X86345272Y-78663009D01*
X86345272Y-78663009D02*
X86315573Y-78766584D01*
X86315573Y-78766584D02*
X86267404Y-78836841D01*
D11*
X144238095Y-127457419D02*
X144238095Y-126457419D01*
X144238095Y-126933609D02*
X144809523Y-126933609D01*
X144809523Y-127457419D02*
X144809523Y-126457419D01*
X145238095Y-126552657D02*
X145285714Y-126505038D01*
X145285714Y-126505038D02*
X145380952Y-126457419D01*
X145380952Y-126457419D02*
X145619047Y-126457419D01*
X145619047Y-126457419D02*
X145714285Y-126505038D01*
X145714285Y-126505038D02*
X145761904Y-126552657D01*
X145761904Y-126552657D02*
X145809523Y-126647895D01*
X145809523Y-126647895D02*
X145809523Y-126743133D01*
X145809523Y-126743133D02*
X145761904Y-126885990D01*
X145761904Y-126885990D02*
X145190476Y-127457419D01*
X145190476Y-127457419D02*
X145809523Y-127457419D01*
X113738095Y-104957419D02*
X113738095Y-103957419D01*
X113738095Y-104433609D02*
X114309523Y-104433609D01*
X114309523Y-104957419D02*
X114309523Y-103957419D01*
X115309523Y-104957419D02*
X114738095Y-104957419D01*
X115023809Y-104957419D02*
X115023809Y-103957419D01*
X115023809Y-103957419D02*
X114928571Y-104100276D01*
X114928571Y-104100276D02*
X114833333Y-104195514D01*
X114833333Y-104195514D02*
X114738095Y-104243133D01*
D10*
X110761905Y-108704819D02*
X110761905Y-107704819D01*
X110761905Y-107704819D02*
X111000000Y-107704819D01*
X111000000Y-107704819D02*
X111142857Y-107752438D01*
X111142857Y-107752438D02*
X111238095Y-107847676D01*
X111238095Y-107847676D02*
X111285714Y-107942914D01*
X111285714Y-107942914D02*
X111333333Y-108133390D01*
X111333333Y-108133390D02*
X111333333Y-108276247D01*
X111333333Y-108276247D02*
X111285714Y-108466723D01*
X111285714Y-108466723D02*
X111238095Y-108561961D01*
X111238095Y-108561961D02*
X111142857Y-108657200D01*
X111142857Y-108657200D02*
X111000000Y-108704819D01*
X111000000Y-108704819D02*
X110761905Y-108704819D01*
X111666667Y-107704819D02*
X112285714Y-107704819D01*
X112285714Y-107704819D02*
X111952381Y-108085771D01*
X111952381Y-108085771D02*
X112095238Y-108085771D01*
X112095238Y-108085771D02*
X112190476Y-108133390D01*
X112190476Y-108133390D02*
X112238095Y-108181009D01*
X112238095Y-108181009D02*
X112285714Y-108276247D01*
X112285714Y-108276247D02*
X112285714Y-108514342D01*
X112285714Y-108514342D02*
X112238095Y-108609580D01*
X112238095Y-108609580D02*
X112190476Y-108657200D01*
X112190476Y-108657200D02*
X112095238Y-108704819D01*
X112095238Y-108704819D02*
X111809524Y-108704819D01*
X111809524Y-108704819D02*
X111714286Y-108657200D01*
X111714286Y-108657200D02*
X111666667Y-108609580D01*
X107728571Y-110862295D02*
X107271428Y-110862295D01*
X107500000Y-110862295D02*
X107500000Y-110062295D01*
X107500000Y-110062295D02*
X107423809Y-110176580D01*
X107423809Y-110176580D02*
X107347619Y-110252771D01*
X107347619Y-110252771D02*
X107271428Y-110290866D01*
X154666666Y-132704819D02*
X154666666Y-133419104D01*
X154666666Y-133419104D02*
X154619047Y-133561961D01*
X154619047Y-133561961D02*
X154523809Y-133657200D01*
X154523809Y-133657200D02*
X154380952Y-133704819D01*
X154380952Y-133704819D02*
X154285714Y-133704819D01*
X155666666Y-133704819D02*
X155095238Y-133704819D01*
X155380952Y-133704819D02*
X155380952Y-132704819D01*
X155380952Y-132704819D02*
X155285714Y-132847676D01*
X155285714Y-132847676D02*
X155190476Y-132942914D01*
X155190476Y-132942914D02*
X155095238Y-132990533D01*
D11*
X190738095Y-101207419D02*
X190738095Y-100207419D01*
X190738095Y-100683609D02*
X191309523Y-100683609D01*
X191309523Y-101207419D02*
X191309523Y-100207419D01*
X192214285Y-100540752D02*
X192214285Y-101207419D01*
X191976190Y-100159800D02*
X191738095Y-100874085D01*
X191738095Y-100874085D02*
X192357142Y-100874085D01*
D10*
X146261905Y-130954819D02*
X146261905Y-129954819D01*
X146261905Y-129954819D02*
X146500000Y-129954819D01*
X146500000Y-129954819D02*
X146642857Y-130002438D01*
X146642857Y-130002438D02*
X146738095Y-130097676D01*
X146738095Y-130097676D02*
X146785714Y-130192914D01*
X146785714Y-130192914D02*
X146833333Y-130383390D01*
X146833333Y-130383390D02*
X146833333Y-130526247D01*
X146833333Y-130526247D02*
X146785714Y-130716723D01*
X146785714Y-130716723D02*
X146738095Y-130811961D01*
X146738095Y-130811961D02*
X146642857Y-130907200D01*
X146642857Y-130907200D02*
X146500000Y-130954819D01*
X146500000Y-130954819D02*
X146261905Y-130954819D01*
X147785714Y-130954819D02*
X147214286Y-130954819D01*
X147500000Y-130954819D02*
X147500000Y-129954819D01*
X147500000Y-129954819D02*
X147404762Y-130097676D01*
X147404762Y-130097676D02*
X147309524Y-130192914D01*
X147309524Y-130192914D02*
X147214286Y-130240533D01*
X144478571Y-130612295D02*
X144021428Y-130612295D01*
X144250000Y-130612295D02*
X144250000Y-129812295D01*
X144250000Y-129812295D02*
X144173809Y-129926580D01*
X144173809Y-129926580D02*
X144097619Y-130002771D01*
X144097619Y-130002771D02*
X144021428Y-130040866D01*
D12*
%TO.C,REF\u002A\u002A*%
X151856497Y-126700000D02*
X153200000Y-125356497D01*
X153200000Y-125356497D02*
X154543503Y-126700000D01*
X153200000Y-128043503D02*
X151856497Y-126700000D01*
X154543503Y-126700000D02*
X153200000Y-128043503D01*
%TO.C,D2*%
X134500000Y-120250000D02*
X134500000Y-125750000D01*
X134500000Y-120250000D02*
X141500000Y-120250000D01*
X134500000Y-125750000D02*
X141050000Y-125750000D01*
X135300000Y-123900000D02*
X135300000Y-122100000D01*
X140700000Y-123900000D02*
X140700000Y-122100000D01*
X141050000Y-125750000D02*
X141500000Y-125300000D01*
X141500000Y-125300000D02*
X141500000Y-120250000D01*
%TO.C,REF\u002A\u002A*%
X169256497Y-110100000D02*
X170600000Y-108756497D01*
X170600000Y-108756497D02*
X171943503Y-110100000D01*
X170600000Y-111443503D02*
X169256497Y-110100000D01*
X171943503Y-110100000D02*
X170600000Y-111443503D01*
%TO.C,D7*%
X102080583Y-71469670D02*
X106712132Y-76101219D01*
X103954416Y-70727208D02*
X105227208Y-69454416D01*
X105969670Y-67580583D02*
X102080583Y-71469670D01*
X105969670Y-67580583D02*
X110919417Y-72530330D01*
X106712132Y-76101219D02*
X107348528Y-76101219D01*
X107348528Y-76101219D02*
X110919417Y-72530330D01*
X107772792Y-74545584D02*
X109045584Y-73272792D01*
%TO.C,REF\u002A\u002A*%
X168156497Y-107500000D02*
X169500000Y-106156497D01*
X169500000Y-106156497D02*
X170843503Y-107500000D01*
X169500000Y-108843503D02*
X168156497Y-107500000D01*
X170843503Y-107500000D02*
X169500000Y-108843503D01*
%TO.C,D6*%
X109750000Y-94000000D02*
X109750000Y-100550000D01*
X109750000Y-100550000D02*
X110200000Y-101000000D01*
X110200000Y-101000000D02*
X115250000Y-101000000D01*
X111600000Y-94800000D02*
X113400000Y-94800000D01*
X111600000Y-100200000D02*
X113400000Y-100200000D01*
X115250000Y-94000000D02*
X109750000Y-94000000D01*
X115250000Y-94000000D02*
X115250000Y-101000000D01*
%TO.C,J3*%
X149800000Y-141300000D02*
X152200000Y-141300000D01*
X149800000Y-143700000D02*
X149800000Y-141300000D01*
X152200000Y-141300000D02*
X152200000Y-143700000D01*
X152200000Y-143700000D02*
X149800000Y-143700000D01*
%TO.C,REF\u002A\u002A*%
X149906497Y-124750000D02*
X151250000Y-123406497D01*
X151250000Y-123406497D02*
X152593503Y-124750000D01*
X151250000Y-126093503D02*
X149906497Y-124750000D01*
X152593503Y-124750000D02*
X151250000Y-126093503D01*
%TO.C,D9*%
X173345966Y-103967073D02*
X175559741Y-108505982D01*
X173553157Y-103365349D02*
X173345966Y-103967073D01*
X174678722Y-104874687D02*
X175467789Y-106492519D01*
X179440259Y-100494018D02*
X173553157Y-103365349D01*
X179532211Y-102507481D02*
X180321278Y-104125313D01*
X181851300Y-105437385D02*
X175559741Y-108505982D01*
X181851300Y-105437385D02*
X179440259Y-100494018D01*
%TO.C,J2*%
X150800000Y-137800000D02*
X153200000Y-137800000D01*
X150800000Y-140200000D02*
X150800000Y-137800000D01*
X153200000Y-137800000D02*
X153200000Y-140200000D01*
X153200000Y-140200000D02*
X150800000Y-140200000D01*
%TO.C,D4*%
X90397041Y-126609052D02*
X89543955Y-119661229D01*
X90397041Y-126609052D02*
X95856045Y-125938771D01*
X93264244Y-120010443D02*
X91477661Y-120229808D01*
X93922339Y-125370192D02*
X92135756Y-125589557D01*
X94556313Y-119045789D02*
X89543955Y-119661229D01*
X95057800Y-119437594D02*
X94556313Y-119045789D01*
X95856045Y-125938771D02*
X95057800Y-119437594D01*
%TO.C,D5*%
X78071505Y-103533846D02*
X84300926Y-105557907D01*
X79404032Y-102021605D02*
X79960263Y-100309703D01*
X79771099Y-98303035D02*
X78071505Y-103533846D01*
X79771099Y-98303035D02*
X86428495Y-100466154D01*
X84300926Y-105557907D02*
X84867959Y-105268989D01*
X84539737Y-103690297D02*
X85095968Y-101978395D01*
X84867959Y-105268989D02*
X86428495Y-100466154D01*
%TO.C,D8*%
X86448487Y-77660723D02*
X89114939Y-82471132D01*
X86448487Y-77660723D02*
X92570825Y-74267056D01*
X88917737Y-80465238D02*
X88045080Y-78890922D01*
X89114939Y-82471132D02*
X94843698Y-79295629D01*
X93640684Y-77847266D02*
X92768027Y-76272950D01*
X94843698Y-79295629D02*
X95019113Y-78683885D01*
X95019113Y-78683885D02*
X92570825Y-74267056D01*
%TO.C,D3*%
X108000000Y-109750000D02*
X108000000Y-115250000D01*
X108000000Y-109750000D02*
X115000000Y-109750000D01*
X108000000Y-115250000D02*
X114550000Y-115250000D01*
X108800000Y-113400000D02*
X108800000Y-111600000D01*
X114200000Y-113400000D02*
X114200000Y-111600000D01*
X114550000Y-115250000D02*
X115000000Y-114800000D01*
X115000000Y-114800000D02*
X115000000Y-109750000D01*
%TO.C,J1*%
X152300000Y-134300000D02*
X154700000Y-134300000D01*
X152300000Y-136700000D02*
X152300000Y-134300000D01*
X154700000Y-134300000D02*
X154700000Y-136700000D01*
X154700000Y-136700000D02*
X152300000Y-136700000D01*
%TO.C,D1*%
X143500000Y-131250000D02*
X143500000Y-136750000D01*
X143500000Y-131250000D02*
X150500000Y-131250000D01*
X143500000Y-136750000D02*
X150050000Y-136750000D01*
X144300000Y-134900000D02*
X144300000Y-133100000D01*
X149700000Y-134900000D02*
X149700000Y-133100000D01*
X150050000Y-136750000D02*
X150500000Y-136300000D01*
X150500000Y-136300000D02*
X150500000Y-131250000D01*
%TD*%
M02*
