%TF.GenerationSoftware,KiCad,Pcbnew,9.0.5*%
%TF.CreationDate,2026-01-19T12:43:50+01:00*%
%TF.ProjectId,Hinterbein_hinten_Seite2_LED-P,48696e74-6572-4626-9569-6e5f68696e74,rev?*%
%TF.SameCoordinates,Original*%
%TF.FileFunction,Legend,Top*%
%TF.FilePolarity,Positive*%
%FSLAX46Y46*%
G04 Gerber Fmt 4.6, Leading zero omitted, Abs format (unit mm)*
G04 Created by KiCad (PCBNEW 9.0.5) date 2026-01-19 12:43:50*
%MOMM*%
%LPD*%
G01*
G04 APERTURE LIST*
%ADD10C,0.100000*%
%ADD11C,0.150000*%
%ADD12C,0.120000*%
G04 APERTURE END LIST*
D10*
X135238095Y-103157419D02*
X135238095Y-102157419D01*
X135238095Y-102633609D02*
X135809523Y-102633609D01*
X135809523Y-103157419D02*
X135809523Y-102157419D01*
X136190476Y-102157419D02*
X136809523Y-102157419D01*
X136809523Y-102157419D02*
X136476190Y-102538371D01*
X136476190Y-102538371D02*
X136619047Y-102538371D01*
X136619047Y-102538371D02*
X136714285Y-102585990D01*
X136714285Y-102585990D02*
X136761904Y-102633609D01*
X136761904Y-102633609D02*
X136809523Y-102728847D01*
X136809523Y-102728847D02*
X136809523Y-102966942D01*
X136809523Y-102966942D02*
X136761904Y-103062180D01*
X136761904Y-103062180D02*
X136714285Y-103109800D01*
X136714285Y-103109800D02*
X136619047Y-103157419D01*
X136619047Y-103157419D02*
X136333333Y-103157419D01*
X136333333Y-103157419D02*
X136238095Y-103109800D01*
X136238095Y-103109800D02*
X136190476Y-103062180D01*
D11*
X133189357Y-90438576D02*
X134140414Y-90129559D01*
X134140414Y-90129559D02*
X134213989Y-90356002D01*
X134213989Y-90356002D02*
X134212846Y-90506582D01*
X134212846Y-90506582D02*
X134151699Y-90626589D01*
X134151699Y-90626589D02*
X134075838Y-90701307D01*
X134075838Y-90701307D02*
X133909399Y-90805456D01*
X133909399Y-90805456D02*
X133773534Y-90849601D01*
X133773534Y-90849601D02*
X133577665Y-90863173D01*
X133577665Y-90863173D02*
X133472373Y-90847315D01*
X133472373Y-90847315D02*
X133352366Y-90786169D01*
X133352366Y-90786169D02*
X133262933Y-90665019D01*
X133262933Y-90665019D02*
X133189357Y-90438576D01*
X133660240Y-91887805D02*
X133483659Y-91344345D01*
X133571950Y-91616075D02*
X134523006Y-91307058D01*
X134523006Y-91307058D02*
X134357711Y-91260627D01*
X134357711Y-91260627D02*
X134237704Y-91199480D01*
X134237704Y-91199480D02*
X134162985Y-91123618D01*
X132573930Y-92570659D02*
X132715195Y-93005428D01*
X132644563Y-92788044D02*
X131883717Y-93035257D01*
X131883717Y-93035257D02*
X132015954Y-93072403D01*
X132015954Y-93072403D02*
X132111959Y-93121320D01*
X132111959Y-93121320D02*
X132171734Y-93182009D01*
D10*
X133042580Y-96538095D02*
X134042580Y-96538095D01*
X133566390Y-96538095D02*
X133566390Y-97109523D01*
X133042580Y-97109523D02*
X134042580Y-97109523D01*
X133042580Y-98109523D02*
X133042580Y-97538095D01*
X133042580Y-97823809D02*
X134042580Y-97823809D01*
X134042580Y-97823809D02*
X133899723Y-97728571D01*
X133899723Y-97728571D02*
X133804485Y-97633333D01*
X133804485Y-97633333D02*
X133756866Y-97538095D01*
D11*
X133006515Y-103552607D02*
X132946512Y-103522034D01*
X132946512Y-103522034D02*
X132857078Y-103400884D01*
X132857078Y-103400884D02*
X132827648Y-103310307D01*
X132827648Y-103310307D02*
X132828791Y-103159727D01*
X132828791Y-103159727D02*
X132889937Y-103039720D01*
X132889937Y-103039720D02*
X132965799Y-102965001D01*
X132965799Y-102965001D02*
X133132238Y-102860852D01*
X133132238Y-102860852D02*
X133268103Y-102816707D01*
X133268103Y-102816707D02*
X133463972Y-102803135D01*
X133463972Y-102803135D02*
X133569263Y-102818993D01*
X133569263Y-102818993D02*
X133689270Y-102880140D01*
X133689270Y-102880140D02*
X133778704Y-103001290D01*
X133778704Y-103001290D02*
X133808134Y-103091867D01*
X133808134Y-103091867D02*
X133806991Y-103242447D01*
X133806991Y-103242447D02*
X133776418Y-103302451D01*
X133210240Y-104487805D02*
X133033659Y-103944345D01*
X133121950Y-104216075D02*
X134073006Y-103907058D01*
X134073006Y-103907058D02*
X133907711Y-103860627D01*
X133907711Y-103860627D02*
X133787704Y-103799480D01*
X133787704Y-103799480D02*
X133712985Y-103723618D01*
D12*
%TO.C,D1*%
X130466154Y-95878495D02*
X128303035Y-89221099D01*
X130466154Y-95878495D02*
X135696965Y-94178901D01*
X132021605Y-88854032D02*
X130309703Y-89410262D01*
X133105871Y-87660563D02*
X128303035Y-89221099D01*
X133672903Y-87949481D02*
X133105871Y-87660563D01*
X133690297Y-93989738D02*
X131978395Y-94545968D01*
X135696965Y-94178901D02*
X133672903Y-87949481D01*
%TO.C,J1*%
X128350000Y-84450000D02*
X130750000Y-84450000D01*
X128350000Y-86850000D02*
X128350000Y-84450000D01*
X130750000Y-84450000D02*
X130750000Y-86850000D01*
X130750000Y-86850000D02*
X128350000Y-86850000D01*
%TO.C,C1*%
X132003235Y-100298204D02*
X132093633Y-100576421D01*
X132973313Y-99983007D02*
X133063711Y-100261224D01*
%TD*%
M02*
