%TF.GenerationSoftware,KiCad,Pcbnew,9.0.5*%
%TF.CreationDate,2026-01-19T12:56:45+01:00*%
%TF.ProjectId,Hinterbein_hinten_Seite2_LED-P,48696e74-6572-4626-9569-6e5f68696e74,rev?*%
%TF.SameCoordinates,Original*%
%TF.FileFunction,Copper,L1,Top*%
%TF.FilePolarity,Positive*%
%FSLAX46Y46*%
G04 Gerber Fmt 4.6, Leading zero omitted, Abs format (unit mm)*
G04 Created by KiCad (PCBNEW 9.0.5) date 2026-01-19 12:56:45*
%MOMM*%
%LPD*%
G01*
G04 APERTURE LIST*
G04 Aperture macros list*
%AMRoundRect*
0 Rectangle with rounded corners*
0 $1 Rounding radius*
0 $2 $3 $4 $5 $6 $7 $8 $9 X,Y pos of 4 corners*
0 Add a 4 corners polygon primitive as box body*
4,1,4,$2,$3,$4,$5,$6,$7,$8,$9,$2,$3,0*
0 Add four circle primitives for the rounded corners*
1,1,$1+$1,$2,$3*
1,1,$1+$1,$4,$5*
1,1,$1+$1,$6,$7*
1,1,$1+$1,$8,$9*
0 Add four rect primitives between the rounded corners*
20,1,$1+$1,$2,$3,$4,$5,0*
20,1,$1+$1,$4,$5,$6,$7,0*
20,1,$1+$1,$6,$7,$8,$9,0*
20,1,$1+$1,$8,$9,$2,$3,0*%
G04 Aperture macros list end*
%TA.AperFunction,ComponentPad*%
%ADD10C,1.000000*%
%TD*%
%TA.AperFunction,ConnectorPad*%
%ADD11C,2.000000*%
%TD*%
%TA.AperFunction,SMDPad,CuDef*%
%ADD12RoundRect,0.090000X0.546332X-0.516451X0.138429X0.738943X-0.546332X0.516451X-0.138429X-0.738943X0*%
%TD*%
%TA.AperFunction,SMDPad,CuDef*%
%ADD13R,2.000000X2.000000*%
%TD*%
%TA.AperFunction,SMDPad,CuDef*%
%ADD14RoundRect,0.237500X-0.318581X0.211925X-0.133171X-0.358708X0.318581X-0.211925X0.133171X0.358708X0*%
%TD*%
%TA.AperFunction,Conductor*%
%ADD15C,0.200000*%
%TD*%
%TA.AperFunction,Conductor*%
%ADD16C,0.400000*%
%TD*%
G04 APERTURE END LIST*
D10*
%TO.P,H3,1,1*%
%TO.N,GND*%
X135500000Y-100700000D03*
D11*
X135500000Y-100700000D03*
%TD*%
D12*
%TO.P,D1,1,VDD*%
%TO.N,/+5V_IN_Hinterbein_hinten_Seite1*%
X131187848Y-94539966D03*
%TO.P,D1,2,DOUT*%
%TO.N,/Data_OUT_K\u00F6rper_Seite1*%
X134326335Y-93520211D03*
%TO.P,D1,3,VSS*%
%TO.N,GND*%
X132812152Y-88860034D03*
%TO.P,D1,4,DIN*%
%TO.N,/Data_IN_Hinterbein_hinten_Seite1*%
X129673665Y-89879789D03*
%TD*%
D10*
%TO.P,H1,1,1*%
%TO.N,/+5V_IN_Hinterbein_hinten_Seite1*%
X131730000Y-97290000D03*
D11*
X131730000Y-97290000D03*
%TD*%
D10*
%TO.P,H2,1,1*%
%TO.N,/Data_IN_Hinterbein_hinten_Seite1*%
X134500000Y-86700000D03*
D11*
X134500000Y-86700000D03*
%TD*%
D13*
%TO.P,J1,1,Pin_1*%
%TO.N,/Data_OUT_K\u00F6rper_Seite1*%
X129550000Y-85650000D03*
%TD*%
D14*
%TO.P,C1,1*%
%TO.N,/+5V_IN_Hinterbein_hinten_Seite1*%
X132266946Y-99459428D03*
%TO.P,C1,2*%
%TO.N,GND*%
X132800000Y-101100000D03*
%TD*%
D15*
%TO.N,*%
X135270000Y-102290000D02*
X135820000Y-102290000D01*
D16*
%TO.N,/+5V_IN_Hinterbein_hinten_Seite1*%
X132000000Y-97700000D02*
X132000000Y-96400000D01*
X132000000Y-95352118D02*
X131187848Y-94539966D01*
X132266946Y-98724446D02*
X132266946Y-99459428D01*
X131730000Y-98187500D02*
X132266946Y-98724446D01*
X131730000Y-97290000D02*
X131730000Y-98187500D01*
X132000000Y-96400000D02*
X132000000Y-95352118D01*
%TO.N,GND*%
X135500000Y-100250000D02*
X133810000Y-98560000D01*
X132800000Y-101700000D02*
X132800000Y-101100000D01*
X135500000Y-100700000D02*
X135500000Y-100250000D01*
X133810000Y-96370000D02*
X135700000Y-94480000D01*
X135500000Y-100700000D02*
X134000000Y-102200000D01*
X133300000Y-102200000D02*
X132800000Y-101700000D01*
X135700000Y-94480000D02*
X135700000Y-90100000D01*
X135700000Y-90100000D02*
X134460034Y-88860034D01*
X134000000Y-102200000D02*
X133300000Y-102200000D01*
X133810000Y-98560000D02*
X133810000Y-96370000D01*
X134460034Y-88860034D02*
X132812152Y-88860034D01*
%TO.N,/Data_OUT_K\u00F6rper_Seite1*%
X127682920Y-87517081D02*
X128987295Y-91564727D01*
X129550000Y-85650000D02*
X127682920Y-87517081D01*
X129550000Y-85650000D02*
X128650139Y-86549861D01*
X134326335Y-93520211D02*
X132370851Y-91564727D01*
X132370851Y-91564727D02*
X128987295Y-91564727D01*
%TO.N,/Data_IN_Hinterbein_hinten_Seite1*%
X132853454Y-86700000D02*
X129673665Y-89879789D01*
X134500000Y-86700000D02*
X132853454Y-86700000D01*
%TD*%
M02*
