%TF.GenerationSoftware,KiCad,Pcbnew,9.0.5*%
%TF.CreationDate,2026-01-27T15:31:19+01:00*%
%TF.ProjectId,Hauptplatine,48617570-7470-46c6-9174-696e652e6b69,rev?*%
%TF.SameCoordinates,Original*%
%TF.FileFunction,Copper,L1,Top*%
%TF.FilePolarity,Positive*%
%FSLAX46Y46*%
G04 Gerber Fmt 4.6, Leading zero omitted, Abs format (unit mm)*
G04 Created by KiCad (PCBNEW 9.0.5) date 2026-01-27 15:31:19*
%MOMM*%
%LPD*%
G01*
G04 APERTURE LIST*
%TA.AperFunction,ComponentPad*%
%ADD10C,2.000000*%
%TD*%
%TA.AperFunction,ComponentPad*%
%ADD11R,1.700000X2.000000*%
%TD*%
%TA.AperFunction,ComponentPad*%
%ADD12C,1.700000*%
%TD*%
%TA.AperFunction,Conductor*%
%ADD13C,0.600000*%
%TD*%
G04 APERTURE END LIST*
D10*
%TO.P,J2,1,Pin_1*%
%TO.N,+5V*%
X142762500Y-83882500D03*
%TO.P,J2,2,Pin_2*%
X140222500Y-83882500D03*
%TD*%
%TO.P,J1,1,Pin_1*%
%TO.N,+5V*%
X148262500Y-83882500D03*
%TO.P,J1,2,Pin_2*%
X145722500Y-83882500D03*
%TD*%
%TO.P,J4,1,Pin_1*%
%TO.N,GND*%
X130762500Y-83882500D03*
%TO.P,J4,2,Pin_2*%
X128222500Y-83882500D03*
%TD*%
%TO.P,J5,1,Pin_1*%
%TO.N,/TRIG_Ultraschall*%
X123262500Y-83882500D03*
%TO.P,J5,2,Pin_2*%
%TO.N,/ECHO_Ultraschall*%
X120722500Y-83882500D03*
%TD*%
%TO.P,J6,1,Pin_1*%
%TO.N,Steuer_Servo*%
X117762500Y-83882500D03*
%TO.P,J6,2,Pin_2*%
%TO.N,Data_LED*%
X115222500Y-83882500D03*
%TD*%
D11*
%TO.P,U1,1,PA02_A0_D0*%
%TO.N,unconnected-(U1-PA02_A0_D0-Pad1)*%
X113840000Y-89500000D03*
D10*
%TO.P,U1,2,PA4_A1_D1*%
%TO.N,unconnected-(U1-PA4_A1_D1-Pad2)*%
X116380000Y-89500000D03*
%TO.P,U1,3,PA10_A2_D2*%
%TO.N,Steuer_Servo*%
X118920000Y-89500000D03*
%TO.P,U1,4,PA11_A3_D3*%
%TO.N,Data_LED*%
X121460000Y-89500000D03*
%TO.P,U1,5,PA8_A4_D4_SDA*%
%TO.N,/TRIG_Ultraschall*%
X124000000Y-89500000D03*
%TO.P,U1,6,PA9_A5_D5_SCL*%
%TO.N,Net-(U1-PA9_A5_D5_SCL)*%
X126540000Y-89500000D03*
%TO.P,U1,7,PB08_A6_D6_TX*%
%TO.N,unconnected-(U1-PB08_A6_D6_TX-Pad7)*%
X129080000Y-89500000D03*
%TO.P,U1,8,PB09_A7_D7_RX*%
%TO.N,unconnected-(U1-PB09_A7_D7_RX-Pad8)*%
X129080000Y-104760000D03*
%TO.P,U1,9,PA7_A8_D8_SCK*%
%TO.N,unconnected-(U1-PA7_A8_D8_SCK-Pad9)*%
X126540000Y-104760000D03*
%TO.P,U1,10,PA5_A9_D9_MISO*%
%TO.N,unconnected-(U1-PA5_A9_D9_MISO-Pad10)*%
X124000000Y-104760000D03*
%TO.P,U1,11,PA6_A10_D10_MOSI*%
%TO.N,unconnected-(U1-PA6_A10_D10_MOSI-Pad11)*%
X121460000Y-104760000D03*
%TO.P,U1,12,3V3*%
%TO.N,+3.3V*%
X118920000Y-104760000D03*
%TO.P,U1,13,GND*%
%TO.N,GND*%
X116380000Y-104760000D03*
%TO.P,U1,14,5V*%
%TO.N,+5V*%
X113840000Y-104760000D03*
%TD*%
%TO.P,J3,1,Pin_1*%
%TO.N,GND*%
X136262500Y-83882500D03*
%TO.P,J3,2,Pin_2*%
X133722500Y-83882500D03*
%TD*%
D12*
%TO.P,U2,1,LV1*%
%TO.N,/ECHO_Ultraschall*%
X137630000Y-103870000D03*
%TO.P,U2,2,LV2*%
%TO.N,unconnected-(U2-LV2-Pad2)*%
X137630000Y-101330000D03*
%TO.P,U2,3,LV*%
%TO.N,+3.3V*%
X137630000Y-98790000D03*
%TO.P,U2,4,GND*%
%TO.N,unconnected-(U2-GND-Pad4)*%
X137630000Y-96250000D03*
%TO.P,U2,5,LV3*%
%TO.N,unconnected-(U2-LV3-Pad5)*%
X137630000Y-93710000D03*
%TO.P,U2,6,LV4*%
%TO.N,unconnected-(U2-LV4-Pad6)*%
X137630000Y-91170000D03*
%TO.P,U2,7,HV1*%
%TO.N,Net-(U1-PA9_A5_D5_SCL)*%
X147780000Y-103870000D03*
%TO.P,U2,8,HV2*%
%TO.N,unconnected-(U2-HV2-Pad8)*%
X147780000Y-101330000D03*
%TO.P,U2,9,HV*%
%TO.N,+5V*%
X147780000Y-98790000D03*
%TO.P,U2,10,GND*%
%TO.N,GND*%
X147780000Y-96250000D03*
%TO.P,U2,11,HV3*%
%TO.N,unconnected-(U2-HV3-Pad11)*%
X147780000Y-93710000D03*
%TO.P,U2,12,HV4*%
%TO.N,unconnected-(U2-HV4-Pad12)*%
X147780000Y-91170000D03*
%TD*%
D13*
%TO.N,GND*%
X116380000Y-102600000D02*
X116380000Y-104760000D01*
X114100000Y-108500000D02*
X111700000Y-106100000D01*
X128222500Y-83882500D02*
X130762500Y-83882500D01*
X130762500Y-83882500D02*
X133722500Y-83882500D01*
X148900000Y-108500000D02*
X114100000Y-108500000D01*
X136262500Y-85962500D02*
X136500000Y-86200000D01*
X151300000Y-106100000D02*
X148900000Y-108500000D01*
X136262500Y-83882500D02*
X136262500Y-85962500D01*
X137763500Y-82381500D02*
X149281500Y-82381500D01*
X111700000Y-106100000D02*
X111700000Y-102600000D01*
X136262500Y-83882500D02*
X137763500Y-82381500D01*
X136500000Y-86200000D02*
X144500000Y-86200000D01*
X144500000Y-86200000D02*
X144500000Y-96300000D01*
X151300000Y-84400000D02*
X151300000Y-106100000D01*
X133722500Y-83882500D02*
X136262500Y-83882500D01*
X149281500Y-82381500D02*
X151300000Y-84400000D01*
X144500000Y-96300000D02*
X147730000Y-96300000D01*
X111700000Y-102600000D02*
X116380000Y-102600000D01*
X147730000Y-96300000D02*
X147780000Y-96250000D01*
%TO.N,+5V*%
X147780000Y-98790000D02*
X150100000Y-98790000D01*
X150100000Y-85720000D02*
X150100000Y-98790000D01*
X142762500Y-83882500D02*
X140222500Y-83882500D01*
X114900000Y-107500000D02*
X113840000Y-106440000D01*
X148262500Y-83882500D02*
X145722500Y-83882500D01*
X150100000Y-105400000D02*
X148000000Y-107500000D01*
X150100000Y-98790000D02*
X150100000Y-105400000D01*
X148262500Y-83882500D02*
X150100000Y-85720000D01*
X148000000Y-107500000D02*
X114900000Y-107500000D01*
X145722500Y-83882500D02*
X142762500Y-83882500D01*
X113840000Y-106440000D02*
X113840000Y-104760000D01*
%TO.N,+3.3V*%
X118920000Y-106420000D02*
X118920000Y-104760000D01*
X140400000Y-98790000D02*
X140400000Y-106500000D01*
X119000000Y-106500000D02*
X118920000Y-106420000D01*
X137630000Y-98790000D02*
X140400000Y-98790000D01*
X140400000Y-106500000D02*
X119000000Y-106500000D01*
%TO.N,/TRIG_Ultraschall*%
X124000000Y-84620000D02*
X123262500Y-83882500D01*
X124000000Y-89500000D02*
X124000000Y-84620000D01*
%TO.N,Net-(U1-PA9_A5_D5_SCL)*%
X126700000Y-87400000D02*
X126500000Y-87600000D01*
X147780000Y-103870000D02*
X143430000Y-103870000D01*
X143400000Y-103840000D02*
X143400000Y-87400000D01*
X143400000Y-87400000D02*
X126700000Y-87400000D01*
X126500000Y-87600000D02*
X126500000Y-89460000D01*
X126500000Y-89460000D02*
X126540000Y-89500000D01*
X143430000Y-103870000D02*
X143400000Y-103840000D01*
%TO.N,Data_LED*%
X115222500Y-85822500D02*
X115222500Y-83882500D01*
X121460000Y-89500000D02*
X121449250Y-89500000D01*
X118249250Y-86300000D02*
X115700000Y-86300000D01*
X121449250Y-89500000D02*
X118249250Y-86300000D01*
X115700000Y-86300000D02*
X115222500Y-85822500D01*
%TO.N,Steuer_Servo*%
X116809250Y-87400000D02*
X115200000Y-87400000D01*
X116261500Y-82381500D02*
X117762500Y-83882500D01*
X113500000Y-82700000D02*
X113818500Y-82381500D01*
X115200000Y-87400000D02*
X113500000Y-85700000D01*
X118920000Y-89500000D02*
X118909250Y-89500000D01*
X113500000Y-85700000D02*
X113500000Y-82700000D01*
X118909250Y-89500000D02*
X116809250Y-87400000D01*
X113818500Y-82381500D02*
X116261500Y-82381500D01*
%TO.N,/ECHO_Ultraschall*%
X118136338Y-80200000D02*
X119671500Y-81735162D01*
X134600000Y-103700000D02*
X134600000Y-91400000D01*
X137630000Y-103870000D02*
X134770000Y-103870000D01*
X112400000Y-91400000D02*
X112000000Y-91000000D01*
X112000000Y-91000000D02*
X112000000Y-82300000D01*
X119671500Y-82831500D02*
X120722500Y-83882500D01*
X114100000Y-80200000D02*
X118136338Y-80200000D01*
X112000000Y-82300000D02*
X114100000Y-80200000D01*
X134600000Y-91400000D02*
X112400000Y-91400000D01*
X119671500Y-81735162D02*
X119671500Y-82831500D01*
X134770000Y-103870000D02*
X134600000Y-103700000D01*
%TD*%
M02*
