M48
; DRILL file {KiCad 9.0.5} date 2026-01-27T15:31:22+0100
; FORMAT={-:-/ absolute / metric / decimal}
; #@! TF.CreationDate,2026-01-27T15:31:22+01:00
; #@! TF.GenerationSoftware,Kicad,Pcbnew,9.0.5
; #@! TF.FileFunction,Plated,1,2,PTH
FMAT,2
METRIC
; #@! TA.AperFunction,Plated,PTH,ComponentDrill
T1C1.000
%
G90
G05
T1
X113.84Y-89.5
X113.84Y-104.76
X115.222Y-83.882
X116.38Y-89.5
X116.38Y-104.76
X117.762Y-83.882
X118.92Y-89.5
X118.92Y-104.76
X120.722Y-83.882
X121.46Y-89.5
X121.46Y-104.76
X123.262Y-83.882
X124.0Y-89.5
X124.0Y-104.76
X126.54Y-89.5
X126.54Y-104.76
X128.222Y-83.882
X129.08Y-89.5
X129.08Y-104.76
X130.762Y-83.882
X133.722Y-83.882
X136.262Y-83.882
X137.63Y-91.17
X137.63Y-93.71
X137.63Y-96.25
X137.63Y-98.79
X137.63Y-101.33
X137.63Y-103.87
X140.222Y-83.882
X142.762Y-83.882
X145.722Y-83.882
X147.78Y-91.17
X147.78Y-93.71
X147.78Y-96.25
X147.78Y-98.79
X147.78Y-101.33
X147.78Y-103.87
X148.262Y-83.882
M30
