%TF.GenerationSoftware,KiCad,Pcbnew,9.0.5*%
%TF.CreationDate,2026-01-19T15:24:21+01:00*%
%TF.ProjectId,K_rper_Seite2,4bf67270-6572-45f5-9365-697465322e6b,rev?*%
%TF.SameCoordinates,Original*%
%TF.FileFunction,Profile,NP*%
%FSLAX46Y46*%
G04 Gerber Fmt 4.6, Leading zero omitted, Abs format (unit mm)*
G04 Created by KiCad (PCBNEW 9.0.5) date 2026-01-19 15:24:21*
%MOMM*%
%LPD*%
G01*
G04 APERTURE LIST*
%TA.AperFunction,Profile*%
%ADD10C,0.100000*%
%TD*%
%TA.AperFunction,Profile*%
%ADD11C,0.010050*%
%TD*%
G04 APERTURE END LIST*
D10*
X183969623Y-92611104D02*
X189649388Y-105863890D01*
X168262644Y-100670673D02*
G75*
G02*
X168637176Y-97402066I-968931J1766786D01*
G01*
X152415283Y-111997881D02*
X164418897Y-105927716D01*
X146512567Y-114982853D02*
G75*
G02*
X152415283Y-111997881I3087046J1224166D01*
G01*
X140800285Y-83499095D02*
X139289754Y-95501702D01*
X167268877Y-104486497D02*
G75*
G02*
X167989804Y-105001126I225636J-446190D01*
G01*
X162756120Y-85659584D02*
X154798946Y-76908898D01*
X110200031Y-138369569D02*
X109740095Y-138702367D01*
X180206894Y-71355639D02*
X180612132Y-69001395D01*
X139289754Y-95501702D02*
G75*
G02*
X135731019Y-99765746I-700441J-3032485D01*
G01*
X168637176Y-97402066D02*
X183969623Y-92611104D01*
X82857521Y-84289814D02*
X71608375Y-87426595D01*
X180612132Y-69001395D02*
X173417423Y-58836393D01*
X105096892Y-105455834D02*
X86809710Y-85315232D01*
X135731021Y-99765745D02*
X134954594Y-100009429D01*
X171203580Y-124254688D02*
X175296410Y-108400851D01*
X167547163Y-89922497D02*
X166880932Y-90339397D01*
X189649388Y-105863890D02*
X191159919Y-103666232D01*
X118656441Y-131262988D02*
X130319035Y-122825792D01*
X156815036Y-74168409D02*
X161194850Y-68214890D01*
X106777290Y-129308324D02*
X106024706Y-129853737D01*
X104050936Y-108700043D02*
X104681672Y-115459901D01*
X71608375Y-87426595D02*
X71051556Y-90290324D01*
X143307894Y-63573772D02*
X141624322Y-76951341D01*
X161194850Y-68214890D02*
G75*
G02*
X165347925Y-67448716I1733063J2244903D01*
G01*
X164418897Y-105927716D02*
X166261313Y-104996017D01*
X168522097Y-52198412D02*
X165047059Y-47378198D01*
X154798946Y-76908898D02*
X156815036Y-74168409D01*
X166546233Y-125296558D02*
X171203580Y-124254688D01*
X130319035Y-122825792D02*
X131923115Y-121665336D01*
X107538725Y-137468926D02*
G75*
G02*
X109740087Y-138702372I17188J-2550461D01*
G01*
X185902429Y-84233371D02*
X170727609Y-88907472D01*
X146435155Y-58247540D02*
G75*
G02*
X143307893Y-63573774I-2275842J-2244947D01*
G01*
X173417423Y-58836393D02*
X171956382Y-56921926D01*
X167989804Y-105001126D02*
X165562463Y-124217584D01*
X165347925Y-67448716D02*
X166549098Y-68121142D01*
X103326945Y-107175492D02*
X104050936Y-108700043D01*
X106024706Y-129853737D02*
X105134558Y-120313659D01*
X176125973Y-73482360D02*
X180206894Y-71355639D01*
X159880540Y-47292097D02*
X158707004Y-51790653D01*
X165047059Y-47378198D02*
X163256887Y-44830646D01*
X136380106Y-120106785D02*
X146512567Y-114982853D01*
X86809710Y-85315232D02*
G75*
G02*
X82857520Y-84289814I-1815197J1132845D01*
G01*
X115374736Y-106154619D02*
G75*
G02*
X111452461Y-107385634I-1788123J-1166768D01*
G01*
X165562463Y-124217584D02*
X166546233Y-125296558D01*
X100993468Y-104822126D02*
G75*
G02*
X103326943Y-107175493I-2183155J-4498261D01*
G01*
X141624322Y-76951341D02*
G75*
G02*
X140800285Y-83499096I-509209J-3261646D01*
G01*
X166261313Y-104996017D02*
X167268877Y-104486497D01*
X163256887Y-44830646D02*
X160522658Y-44830646D01*
X171956382Y-56921926D02*
G75*
G02*
X168522097Y-52198411I-1850169J2265039D01*
G01*
X170727609Y-88907472D02*
X167547163Y-89922497D01*
X106777290Y-129308324D02*
X107538725Y-137468926D01*
X160522658Y-44830646D02*
X159880540Y-47292097D01*
X118914278Y-132064137D02*
X118656441Y-131262988D01*
X131923115Y-121665336D02*
G75*
G02*
X136380106Y-120106785I2118598J1093549D01*
G01*
X166549098Y-68121142D02*
X176125973Y-73482360D01*
X175296410Y-108400851D02*
X168262644Y-100670673D01*
X111452464Y-107385634D02*
X107870000Y-108510000D01*
X107870000Y-108510000D02*
X105096892Y-105455834D01*
X191537172Y-103117371D02*
X185902429Y-84233371D01*
X134954594Y-100009429D02*
X115374736Y-106154619D01*
X191159919Y-103666232D02*
X191537172Y-103117371D01*
X71051556Y-90290324D02*
X100993468Y-104822126D01*
X118914278Y-132064137D02*
X110200031Y-138369569D01*
X166880932Y-90339397D02*
G75*
G02*
X162756119Y-85659583I-2120719J2288510D01*
G01*
X104681672Y-115459901D02*
G75*
G02*
X105134558Y-120313659I523241J-2399186D01*
G01*
X158707004Y-51790653D02*
X146435155Y-58247540D01*
D11*
X-89796062Y-180304587D02*
G75*
G02*
X-89806112Y-180304587I-5025J0D01*
G01*
X-89806112Y-180304587D02*
G75*
G02*
X-89796062Y-180304587I5025J0D01*
G01*
M02*
