%TF.GenerationSoftware,KiCad,Pcbnew,9.0.5*%
%TF.CreationDate,2026-01-13T16:57:50+01:00*%
%TF.ProjectId,Hinterbein_vorne_Seite1_LED-P,48696e74-6572-4626-9569-6e5f766f726e,rev?*%
%TF.SameCoordinates,Original*%
%TF.FileFunction,Copper,L1,Top*%
%TF.FilePolarity,Positive*%
%FSLAX46Y46*%
G04 Gerber Fmt 4.6, Leading zero omitted, Abs format (unit mm)*
G04 Created by KiCad (PCBNEW 9.0.5) date 2026-01-13 16:57:50*
%MOMM*%
%LPD*%
G01*
G04 APERTURE LIST*
G04 Aperture macros list*
%AMRoundRect*
0 Rectangle with rounded corners*
0 $1 Rounding radius*
0 $2 $3 $4 $5 $6 $7 $8 $9 X,Y pos of 4 corners*
0 Add a 4 corners polygon primitive as box body*
4,1,4,$2,$3,$4,$5,$6,$7,$8,$9,$2,$3,0*
0 Add four circle primitives for the rounded corners*
1,1,$1+$1,$2,$3*
1,1,$1+$1,$4,$5*
1,1,$1+$1,$6,$7*
1,1,$1+$1,$8,$9*
0 Add four rect primitives between the rounded corners*
20,1,$1+$1,$2,$3,$4,$5,0*
20,1,$1+$1,$4,$5,$6,$7,0*
20,1,$1+$1,$6,$7,$8,$9,0*
20,1,$1+$1,$8,$9,$2,$3,0*%
%AMRotRect*
0 Rectangle, with rotation*
0 The origin of the aperture is its center*
0 $1 length*
0 $2 width*
0 $3 Rotation angle, in degrees counterclockwise*
0 Add horizontal line*
21,1,$1,$2,0,0,$3*%
G04 Aperture macros list end*
%TA.AperFunction,SMDPad,CuDef*%
%ADD10R,2.000000X2.000000*%
%TD*%
%TA.AperFunction,SMDPad,CuDef*%
%ADD11RotRect,2.000000X2.000000X20.000000*%
%TD*%
%TA.AperFunction,SMDPad,CuDef*%
%ADD12RoundRect,0.100000X-0.130000X-0.100000X0.130000X-0.100000X0.130000X0.100000X-0.130000X0.100000X0*%
%TD*%
%TA.AperFunction,ComponentPad*%
%ADD13C,1.000000*%
%TD*%
%TA.AperFunction,ConnectorPad*%
%ADD14C,2.000000*%
%TD*%
%TA.AperFunction,SMDPad,CuDef*%
%ADD15RoundRect,0.090000X0.138429X-0.738943X0.546332X0.516451X-0.138429X0.738943X-0.546332X-0.516451X0*%
%TD*%
%TA.AperFunction,Conductor*%
%ADD16C,0.200000*%
%TD*%
G04 APERTURE END LIST*
D10*
%TO.P,J1,1,Pin_1*%
%TO.N,/+5V_IN_K\u00F6rper_Seite2*%
X149750000Y-65750000D03*
%TD*%
D11*
%TO.P,J2,1,Pin_1*%
%TO.N,/Data_IN_K\u00F6rper_Seite2*%
X152500000Y-63250000D03*
%TD*%
D12*
%TO.P,C1,1*%
%TO.N,/+5V_IN_K\u00F6rper_Seite2*%
X148085000Y-76000000D03*
%TO.P,C1,2*%
%TO.N,GND*%
X148725000Y-76000000D03*
%TD*%
D13*
%TO.P,H3,1,1*%
%TO.N,GND*%
X148250000Y-82250000D03*
D14*
X148250000Y-82250000D03*
%TD*%
D13*
%TO.P,H2,1,1*%
%TO.N,/Data_OUT_Hinterbein_vorne_Seite2*%
X150500000Y-76250000D03*
D14*
X150500000Y-76250000D03*
%TD*%
D11*
%TO.P,J3,1,Pin_1*%
%TO.N,GND*%
X153750000Y-66250000D03*
%TD*%
D13*
%TO.P,H1,1,1*%
%TO.N,/+5V_IN_K\u00F6rper_Seite2*%
X149000000Y-84750000D03*
D14*
X149000000Y-84750000D03*
%TD*%
D15*
%TO.P,D1,1,VDD*%
%TO.N,/+5V_IN_K\u00F6rper_Seite2*%
X149423666Y-73320211D03*
%TO.P,D1,2,DOUT*%
%TO.N,/Data_OUT_Hinterbein_vorne_Seite2*%
X152562153Y-74339967D03*
%TO.P,D1,3,VSS*%
%TO.N,GND*%
X154076334Y-69679789D03*
%TO.P,D1,4,DIN*%
%TO.N,/Data_IN_K\u00F6rper_Seite2*%
X150937847Y-68660033D03*
%TD*%
D16*
%TO.N,*%
X148100000Y-86800000D02*
X148700000Y-86800000D01*
X148400000Y-86500000D02*
X148400000Y-87100000D01*
X149700000Y-82800000D02*
X150200000Y-82800000D01*
%TO.N,/+5V_IN_K\u00F6rper_Seite2*%
X147530162Y-75500000D02*
X147495722Y-75814999D01*
X149423666Y-73606496D02*
X147530162Y-75500000D01*
X147680723Y-76000000D02*
X148085000Y-76000000D01*
X149423666Y-73320211D02*
X149423666Y-73606496D01*
X146743982Y-82690675D02*
X148750000Y-84696693D01*
X148454524Y-67045476D02*
X147530162Y-75500000D01*
X149750000Y-65750000D02*
X148616799Y-66883201D01*
X147495722Y-75814999D02*
X146743982Y-82690675D01*
X147495722Y-75814999D02*
X147680723Y-76000000D01*
X148616799Y-66883201D02*
X148454524Y-67045476D01*
%TO.N,GND*%
X148725000Y-77275000D02*
X148250000Y-77750000D01*
X148250000Y-77750000D02*
X148250000Y-82250000D01*
X155000000Y-67500000D02*
X155000000Y-68706123D01*
X155000000Y-68706123D02*
X154076334Y-69629789D01*
X148225000Y-82225000D02*
X148250000Y-82250000D01*
X148725000Y-76000000D02*
X148725000Y-77275000D01*
X153750000Y-66250000D02*
X155000000Y-67500000D01*
X154076334Y-70648666D02*
X148725000Y-76000000D01*
X154076334Y-69679789D02*
X154076334Y-70648666D01*
X154076334Y-69629789D02*
X154076334Y-69679789D01*
%TO.N,/Data_IN_K\u00F6rper_Seite2*%
X152200000Y-62900000D02*
X151750000Y-63350000D01*
X151750000Y-67847881D02*
X150937848Y-68660033D01*
X150937848Y-68660033D02*
X150937848Y-68610033D01*
X151750000Y-63350000D02*
X151750000Y-67847881D01*
%TO.N,/Data_OUT_Hinterbein_vorne_Seite2*%
X152562152Y-74687848D02*
X151000000Y-76250000D01*
X151000000Y-76250000D02*
X150500000Y-76250000D01*
X152562152Y-74339967D02*
X152562152Y-74687848D01*
%TD*%
M02*
