%TF.GenerationSoftware,KiCad,Pcbnew,9.0.5*%
%TF.CreationDate,2026-01-19T13:08:03+01:00*%
%TF.ProjectId,Hinterbein_vorne_Seite1_LED-P,48696e74-6572-4626-9569-6e5f766f726e,rev?*%
%TF.SameCoordinates,Original*%
%TF.FileFunction,Copper,L1,Top*%
%TF.FilePolarity,Positive*%
%FSLAX46Y46*%
G04 Gerber Fmt 4.6, Leading zero omitted, Abs format (unit mm)*
G04 Created by KiCad (PCBNEW 9.0.5) date 2026-01-19 13:08:03*
%MOMM*%
%LPD*%
G01*
G04 APERTURE LIST*
G04 Aperture macros list*
%AMRoundRect*
0 Rectangle with rounded corners*
0 $1 Rounding radius*
0 $2 $3 $4 $5 $6 $7 $8 $9 X,Y pos of 4 corners*
0 Add a 4 corners polygon primitive as box body*
4,1,4,$2,$3,$4,$5,$6,$7,$8,$9,$2,$3,0*
0 Add four circle primitives for the rounded corners*
1,1,$1+$1,$2,$3*
1,1,$1+$1,$4,$5*
1,1,$1+$1,$6,$7*
1,1,$1+$1,$8,$9*
0 Add four rect primitives between the rounded corners*
20,1,$1+$1,$2,$3,$4,$5,0*
20,1,$1+$1,$4,$5,$6,$7,0*
20,1,$1+$1,$6,$7,$8,$9,0*
20,1,$1+$1,$8,$9,$2,$3,0*%
%AMRotRect*
0 Rectangle, with rotation*
0 The origin of the aperture is its center*
0 $1 length*
0 $2 width*
0 $3 Rotation angle, in degrees counterclockwise*
0 Add horizontal line*
21,1,$1,$2,0,0,$3*%
G04 Aperture macros list end*
%TA.AperFunction,NonConductor*%
%ADD10C,0.200000*%
%TD*%
%TA.AperFunction,SMDPad,CuDef*%
%ADD11R,2.000000X2.000000*%
%TD*%
%TA.AperFunction,SMDPad,CuDef*%
%ADD12RotRect,2.000000X2.000000X72.000000*%
%TD*%
%TA.AperFunction,SMDPad,CuDef*%
%ADD13RoundRect,0.237500X-0.325783X0.200678X-0.120571X-0.363138X0.325783X-0.200678X0.120571X0.363138X0*%
%TD*%
%TA.AperFunction,ComponentPad*%
%ADD14C,1.000000*%
%TD*%
%TA.AperFunction,ConnectorPad*%
%ADD15C,2.000000*%
%TD*%
%TA.AperFunction,SMDPad,CuDef*%
%ADD16RoundRect,0.090000X0.138429X-0.738943X0.546332X0.516451X-0.138429X0.738943X-0.546332X-0.516451X0*%
%TD*%
%TA.AperFunction,Conductor*%
%ADD17C,0.200000*%
%TD*%
%TA.AperFunction,Conductor*%
%ADD18C,0.400000*%
%TD*%
G04 APERTURE END LIST*
D10*
X155200000Y-68400000D02*
X155200000Y-68500000D01*
X149900000Y-63900000D02*
X149900000Y-64500000D01*
X149600000Y-64200000D02*
X150200000Y-64200000D01*
X154800000Y-64400000D02*
X155400000Y-64600000D01*
D11*
%TO.P,J1,1,Pin_1*%
%TO.N,/+5V_IN_K\u00F6rper_Seite2*%
X150000000Y-65800000D03*
%TD*%
D12*
%TO.P,J2,1,Pin_1*%
%TO.N,/Data_IN_K\u00F6rper_Seite2*%
X152700000Y-63100000D03*
%TD*%
D13*
%TO.P,C1,1*%
%TO.N,/+5V_IN_K\u00F6rper_Seite2*%
X147845008Y-77659515D03*
%TO.P,C1,2*%
%TO.N,GND*%
X148434992Y-79280485D03*
%TD*%
D14*
%TO.P,H3,1,1*%
%TO.N,GND*%
X148500000Y-82250000D03*
D15*
X148500000Y-82250000D03*
%TD*%
D14*
%TO.P,H2,1,1*%
%TO.N,/Data_OUT_Hinterbein_vorne_Seite2*%
X150500000Y-76250000D03*
D15*
X150500000Y-76250000D03*
%TD*%
D12*
%TO.P,J3,1,Pin_1*%
%TO.N,GND*%
X154900000Y-66300000D03*
%TD*%
D14*
%TO.P,H1,1,1*%
%TO.N,/+5V_IN_K\u00F6rper_Seite2*%
X149000000Y-84750000D03*
D15*
X149000000Y-84750000D03*
%TD*%
D16*
%TO.P,D1,1,VDD*%
%TO.N,/+5V_IN_K\u00F6rper_Seite2*%
X149423666Y-73320211D03*
%TO.P,D1,2,DOUT*%
%TO.N,/Data_OUT_Hinterbein_vorne_Seite2*%
X152562153Y-74339967D03*
%TO.P,D1,3,VSS*%
%TO.N,GND*%
X154076334Y-69679789D03*
%TO.P,D1,4,DIN*%
%TO.N,/Data_IN_K\u00F6rper_Seite2*%
X150937847Y-68660033D03*
%TD*%
D17*
%TO.N,*%
X148400000Y-86500000D02*
X148400000Y-87100000D01*
X149700000Y-82800000D02*
X150200000Y-82800000D01*
X148100000Y-86800000D02*
X148700000Y-86800000D01*
D18*
%TO.N,/+5V_IN_K\u00F6rper_Seite2*%
X149000000Y-70400000D02*
X149423666Y-70823666D01*
X149423666Y-73320211D02*
X149423666Y-73776334D01*
X147624119Y-75575881D02*
X147440531Y-77255038D01*
X146835231Y-82791318D02*
X146835231Y-83935231D01*
D17*
X149423666Y-73320211D02*
X149423666Y-73606496D01*
D18*
X150000000Y-65800000D02*
X150000000Y-66633490D01*
X149423666Y-73776334D02*
X147624119Y-75575881D01*
X147650000Y-84750000D02*
X149000000Y-84750000D01*
X146835231Y-83935231D02*
X147650000Y-84750000D01*
X147440531Y-77255038D02*
X147845008Y-77659515D01*
X147440531Y-77255038D02*
X146835231Y-82791318D01*
X150000000Y-66633490D02*
X149000000Y-67633490D01*
X149423666Y-70823666D02*
X149423666Y-73320211D01*
X149000000Y-67633490D02*
X149000000Y-70400000D01*
%TO.N,GND*%
X154400000Y-69356123D02*
X154076334Y-69679789D01*
X148434992Y-82184992D02*
X148500000Y-82250000D01*
X148434992Y-78865008D02*
X148434992Y-79280485D01*
X149300000Y-78000000D02*
X148434992Y-78865008D01*
X154076334Y-69679789D02*
X154076334Y-70648666D01*
X148725000Y-76000000D02*
X148725000Y-76825000D01*
D17*
X148475000Y-82225000D02*
X148500000Y-82250000D01*
D18*
X154076334Y-70648666D02*
X148725000Y-76000000D01*
X149300000Y-77400000D02*
X149300000Y-78000000D01*
X154900000Y-66300000D02*
X154400000Y-66800000D01*
X154400000Y-66800000D02*
X154400000Y-69356123D01*
X148434992Y-79280485D02*
X148434992Y-82184992D01*
X148725000Y-76825000D02*
X149300000Y-77400000D01*
D17*
%TO.N,/Data_IN_K\u00F6rper_Seite2*%
X152200000Y-62900000D02*
X151750000Y-63350000D01*
D18*
X152700000Y-66897880D02*
X150937847Y-68660033D01*
D17*
X150937848Y-68660033D02*
X150937848Y-68610033D01*
D18*
X152700000Y-63100000D02*
X152700000Y-66897880D01*
%TO.N,/Data_OUT_Hinterbein_vorne_Seite2*%
X152562153Y-74687847D02*
X151000000Y-76250000D01*
D17*
X152562152Y-74687848D02*
X151000000Y-76250000D01*
D18*
X152562153Y-74339967D02*
X152562153Y-74687847D01*
D17*
X151000000Y-76250000D02*
X150500000Y-76250000D01*
X152562152Y-74339967D02*
X152562152Y-74687848D01*
%TD*%
M02*
