%TF.GenerationSoftware,KiCad,Pcbnew,9.0.5*%
%TF.CreationDate,2026-01-19T13:11:35+01:00*%
%TF.ProjectId,Hinterbein_vorne_Seite2_LED-P,48696e74-6572-4626-9569-6e5f766f726e,rev?*%
%TF.SameCoordinates,Original*%
%TF.FileFunction,Copper,L1,Top*%
%TF.FilePolarity,Positive*%
%FSLAX46Y46*%
G04 Gerber Fmt 4.6, Leading zero omitted, Abs format (unit mm)*
G04 Created by KiCad (PCBNEW 9.0.5) date 2026-01-19 13:11:35*
%MOMM*%
%LPD*%
G01*
G04 APERTURE LIST*
G04 Aperture macros list*
%AMRoundRect*
0 Rectangle with rounded corners*
0 $1 Rounding radius*
0 $2 $3 $4 $5 $6 $7 $8 $9 X,Y pos of 4 corners*
0 Add a 4 corners polygon primitive as box body*
4,1,4,$2,$3,$4,$5,$6,$7,$8,$9,$2,$3,0*
0 Add four circle primitives for the rounded corners*
1,1,$1+$1,$2,$3*
1,1,$1+$1,$4,$5*
1,1,$1+$1,$6,$7*
1,1,$1+$1,$8,$9*
0 Add four rect primitives between the rounded corners*
20,1,$1+$1,$2,$3,$4,$5,0*
20,1,$1+$1,$4,$5,$6,$7,0*
20,1,$1+$1,$6,$7,$8,$9,0*
20,1,$1+$1,$8,$9,$2,$3,0*%
G04 Aperture macros list end*
%TA.AperFunction,NonConductor*%
%ADD10C,0.200000*%
%TD*%
%TA.AperFunction,ComponentPad*%
%ADD11C,1.000000*%
%TD*%
%TA.AperFunction,ConnectorPad*%
%ADD12C,2.000000*%
%TD*%
%TA.AperFunction,SMDPad,CuDef*%
%ADD13RoundRect,0.237500X0.300000X0.237500X-0.300000X0.237500X-0.300000X-0.237500X0.300000X-0.237500X0*%
%TD*%
%TA.AperFunction,SMDPad,CuDef*%
%ADD14RoundRect,0.090000X-0.546332X0.516451X-0.138429X-0.738943X0.546332X-0.516451X0.138429X0.738943X0*%
%TD*%
%TA.AperFunction,Conductor*%
%ADD15C,0.400000*%
%TD*%
%TA.AperFunction,Conductor*%
%ADD16C,0.380000*%
%TD*%
G04 APERTURE END LIST*
D10*
X153000000Y-111000000D02*
X153500000Y-111000000D01*
X154900000Y-114200000D02*
X154900000Y-114800000D01*
X154600000Y-114500000D02*
X155200000Y-114500000D01*
X150700000Y-104000000D02*
X150700000Y-104100000D01*
D11*
%TO.P,H1,1,1*%
%TO.N,/+5V_IN_Hinterbein_vorne_Seite1*%
X154380000Y-112840000D03*
D12*
X154380000Y-112840000D03*
%TD*%
D11*
%TO.P,H2,1,1*%
%TO.N,/Data_IN_Hinterbein_vorne_Seite1*%
X152880000Y-104340000D03*
D12*
X152880000Y-104340000D03*
%TD*%
D13*
%TO.P,C1,1*%
%TO.N,/+5V_IN_Hinterbein_vorne_Seite1*%
X152212500Y-94100000D03*
%TO.P,C1,2*%
%TO.N,GND*%
X150487500Y-94100000D03*
%TD*%
D14*
%TO.P,D1,1,VDD*%
%TO.N,/+5V_IN_Hinterbein_vorne_Seite1*%
X152412153Y-96760033D03*
%TO.P,D1,2,DOUT*%
%TO.N,unconnected-(D1-DOUT-Pad2)*%
X149273665Y-97779790D03*
%TO.P,D1,3,VSS*%
%TO.N,GND*%
X150787847Y-102439967D03*
%TO.P,D1,4,DIN*%
%TO.N,/Data_IN_Hinterbein_vorne_Seite1*%
X153926335Y-101420210D03*
%TD*%
D11*
%TO.P,H3,1,1*%
%TO.N,GND*%
X154850000Y-110350000D03*
D12*
X154850000Y-110350000D03*
%TD*%
D15*
%TO.N,GND*%
X150787847Y-99400000D02*
X150787847Y-96087847D01*
X150787847Y-102439967D02*
X150787847Y-99400000D01*
X155300000Y-105800000D02*
X155300000Y-105003890D01*
D16*
X154874673Y-101113702D02*
X154884733Y-101113702D01*
D15*
X149750000Y-95050000D02*
X149750000Y-94100000D01*
D16*
X154962606Y-101825955D02*
X154962606Y-101991031D01*
D15*
X149750000Y-94100000D02*
X150487500Y-94100000D01*
X154850000Y-110350000D02*
X154850000Y-106250000D01*
X150787847Y-99400000D02*
X154657218Y-99400000D01*
D16*
X154962606Y-101991031D02*
X154971575Y-102000000D01*
D15*
X150787847Y-96087847D02*
X149750000Y-95050000D01*
X155300000Y-105003890D02*
X154971575Y-102000000D01*
X154850000Y-106250000D02*
X155300000Y-105800000D01*
X154691002Y-99433784D02*
X154874673Y-101113702D01*
D16*
X154884733Y-101113702D02*
X154962606Y-101825955D01*
D15*
X154965147Y-101941207D02*
X154971575Y-102000000D01*
X154657218Y-99400000D02*
X154691002Y-99433784D01*
%TO.N,/+5V_IN_Hinterbein_vorne_Seite1*%
X152600000Y-95400000D02*
X154854557Y-95400000D01*
X156564083Y-111035917D02*
X154760000Y-112840000D01*
X152412153Y-96760033D02*
X152412153Y-95587847D01*
X154854557Y-95400000D02*
X156564083Y-111035917D01*
X154767479Y-94603556D02*
X154854557Y-95400000D01*
X154263923Y-94100000D02*
X154767479Y-94603556D01*
X152412153Y-95587847D02*
X152600000Y-95400000D01*
X152212500Y-94100000D02*
X154263923Y-94100000D01*
%TO.N,/Data_IN_Hinterbein_vorne_Seite1*%
X152880000Y-104340000D02*
X153926335Y-103293665D01*
X153926335Y-103293665D02*
X153926335Y-101420210D01*
%TD*%
M02*
